<svg width="14" height="14" viewBox="0 0 14 14" fill="none" xmlns="http://www.w3.org/2000/svg">
<g clip-path="url(#clip0_932_12172)">
<path d="M7 5.72754V8.43845H10.7673C10.6018 9.31027 10.1054 10.0485 9.36088 10.5448L11.6327 12.3076C12.9563 11.0858 13.72 9.29124 13.72 7.15943C13.72 6.66307 13.6754 6.18575 13.5927 5.72762L7 5.72754Z" fill="#4285F4"/>
<path d="M3.07702 8.33203L2.56464 8.72425L0.750977 10.137C1.90279 12.4215 4.26353 13.9997 6.99987 13.9997C8.88982 13.9997 10.4743 13.376 11.6326 12.307L9.36075 10.5442C8.73711 10.9642 7.94165 11.2188 6.99987 11.2188C5.17988 11.2188 3.63356 9.99064 3.07988 8.33607L3.07702 8.33203Z" fill="#34A853"/>
<path d="M0.750854 3.8623C0.273608 4.80408 0 5.86683 0 6.99953C0 8.13224 0.273608 9.19499 0.750854 10.1368C0.750854 10.1431 3.07999 8.32949 3.07999 8.32949C2.93999 7.90949 2.85724 7.46407 2.85724 6.99946C2.85724 6.53486 2.93999 6.08943 3.07999 5.66943L0.750854 3.8623Z" fill="#FBBC05"/>
<path d="M7.00001 2.78727C8.03093 2.78727 8.94728 3.14362 9.6791 3.83091L11.6836 1.82639C10.4682 0.69368 8.89004 0 7.00001 0C4.26367 0 1.90279 1.57182 0.750977 3.86273L3.08004 5.67001C3.63364 4.01544 5.18002 2.78727 7.00001 2.78727Z" fill="#EA4335"/>
</g>
<defs>
<clipPath id="clip0_932_12172">
<rect width="14" height="14" fill="white"/>
</clipPath>
</defs>
</svg>
