<svg width="24" height="24" viewBox="0 0 24 24" fill="none" xmlns="http://www.w3.org/2000/svg">
<path d="M12.4 3C8.42358 3 5.20004 6.22355 5.20004 10.2V14.503L4.3515 15.3515C4.0083 15.6947 3.90564 16.2108 4.09138 16.6592C4.27712 17.1077 4.71468 17.4 5.20004 17.4H19.6C20.0854 17.4 20.5229 17.1077 20.7087 16.6592C20.8944 16.2108 20.7917 15.6947 20.4485 15.3515L19.6 14.503V10.2C19.6 6.22355 16.3764 3 12.4 3Z" fill="#ADB1BA"/>
<path d="M12.4 22.2C10.4118 22.2 8.8 20.5883 8.8 18.6H16C16 20.5883 14.3883 22.2 12.4 22.2Z" fill="#868B94"/>
<circle cx="20" cy="3" r="2" fill="#F35E5E"/>
</svg>
