<svg width="100%" height="100%" viewBox="0 0 16 17" fill="current" xmlns="http://www.w3.org/2000/svg">
<path fill-rule="evenodd" clip-rule="evenodd" d="M13.9999 2.16602H1.99992C1.82311 2.16602 1.65354 2.23625 1.52851 2.36128C1.40349 2.4863 1.33325 2.65587 1.33325 2.83268V3.94402H14.6666V2.83268C14.6666 2.65587 14.5963 2.4863 14.4713 2.36128C14.3463 2.23625 14.1767 2.16602 13.9999 2.16602ZM2.11725 13.2913C2.11725 13.7156 2.28573 14.1224 2.58565 14.4225C2.88556 14.7225 3.29235 14.8912 3.71659 14.8913H6.66659V12.3887C6.66659 12.2119 6.73682 12.0423 6.86185 11.9173C6.98687 11.7923 7.15644 11.722 7.33325 11.722H8.66659C8.8434 11.722 9.01297 11.7923 9.13799 11.9173C9.26301 12.0423 9.33325 12.2119 9.33325 12.3887V14.8907H12.2833C12.7075 14.8905 13.1143 14.7219 13.4142 14.4218C13.7141 14.1218 13.8826 13.7149 13.8826 13.2907V7.83268H2.11725V13.2913ZM1.33325 6.16602C1.33325 6.34283 1.40349 6.5124 1.52851 6.63742C1.65354 6.76244 1.82311 6.83268 1.99992 6.83268H13.9999C14.1767 6.83268 14.3463 6.76244 14.4713 6.63742C14.5963 6.5124 14.6666 6.34283 14.6666 6.16602V5.05468H1.33325V6.16602Z" fill="current"/>
</svg>
