<svg width="100%" height="100%" viewBox="0 0 24 24" fill="current" xmlns="http://www.w3.org/2000/svg">
<path d="M15.25 6.5C16.4927 6.5 17.5 5.49265 17.5 4.25C17.5 3.00736 16.4927 2 15.25 2C14.0073 2 13 3.00736 13 4.25C13 5.49265 14.0073 6.5 15.25 6.5Z" fill="current"/>
<path d="M10.7301 8.64115C10.1063 8.79575 9.68095 9.02895 9.33755 9.3181C8.82215 9.75215 8.4067 10.3784 7.8446 11.362C7.5706 11.8415 6.95975 12.0081 6.48025 11.7341C6.0007 11.4601 5.83415 10.8492 6.10815 10.3697C6.6674 9.3911 7.2331 8.4756 8.04925 7.7883C8.9014 7.0707 9.9441 6.6644 11.3512 6.508C11.9391 6.4427 12.5857 6.45585 13.1923 6.7266C13.8292 7.0109 14.2938 7.5203 14.6109 8.20115C15.0378 9.1179 15.3554 9.6637 15.6098 9.97975C15.7321 10.1316 15.8176 10.2021 15.8659 10.2336C15.9045 10.2588 15.9207 10.2607 15.9269 10.2614L15.9276 10.2615C15.9712 10.2668 16.1118 10.2613 16.5262 10.0781C16.7065 9.99845 16.9037 9.9021 17.1445 9.78445L17.2021 9.7563C17.4627 9.62905 17.761 9.4843 18.0941 9.3362C18.5988 9.1119 19.1897 9.3392 19.4141 9.8439C19.6384 10.3485 19.4111 10.9395 18.9064 11.1638C18.6088 11.2961 18.3383 11.4272 18.0798 11.5534L18.0145 11.5854C17.784 11.698 17.5521 11.8114 17.3348 11.9074C16.8844 12.1065 16.3091 12.3227 15.6859 12.2468C15.0281 12.1667 14.5209 11.7957 14.1037 11.297L12.7368 13.9333L14.6266 16.3926C14.7394 16.5393 14.8092 16.7144 14.8283 16.8984L15.2447 20.8965C15.3019 21.4458 14.9029 21.9375 14.3536 21.9946C13.8043 22.0519 13.3126 21.6529 13.2554 21.1036L12.8684 17.3869L11.7205 15.8932L11.7109 15.9117L11.6687 15.8257L9.54745 13.0653C9.33545 12.7895 9.28205 12.4233 9.40645 12.0985L10.7301 8.64115Z" fill="current"/>
<path d="M9.21605 14.5035L8.48015 16.4838L5.57955 16.2531C5.029 16.2093 4.54722 16.6202 4.50344 17.1707C4.45966 17.7212 4.87047 18.203 5.421 18.2468L9.075 18.5374C9.52075 18.5728 9.93585 18.308 10.0916 17.8889L10.6542 16.375L9.21605 14.5035Z" fill="current"/>
</svg>
