<svg width="32" height="32" viewBox="0 0 32 32" fill="none" xmlns="http://www.w3.org/2000/svg">
<g id="&#226;&#157;&#132;&#239;&#184;&#143;">
<g id="Group">
<path id="Vector" d="M28.0112 21.6941L25.6312 20.2861L24.0488 20.8005L24.236 22.2493L26.7896 23.7597C26.9808 23.8733 27.192 23.9269 27.4 23.9269C27.8104 23.9269 28.2096 23.7165 28.4336 23.3381C28.7712 22.7677 28.5816 22.0317 28.0112 21.6941Z" fill="#C9DCFF"/>
<path id="Vector_2" d="M7.773 9.75283L5.2098 8.24003C4.641 7.90563 3.905 8.09203 3.5666 8.66403C3.2298 9.23443 3.4194 9.97043 3.9906 10.3072L6.3778 11.7152L7.9602 11.2L7.773 9.75283Z" fill="#C9DCFF"/>
<path id="Vector_3" d="M25.6306 11.715L28.0106 10.307C28.581 9.96937 28.7698 9.23337 28.4322 8.66297C28.0946 8.09257 27.3586 7.90457 26.7882 8.24137L24.2346 9.75177L24.0474 11.2006L25.6306 11.715Z" fill="#C9DCFF"/>
<path id="Vector_4" d="M6.3778 20.285L3.9906 21.693C3.4194 22.0298 3.2298 22.7658 3.5666 23.3362C3.7906 23.7162 4.1906 23.9266 4.601 23.9266C4.809 23.9266 5.0178 23.873 5.2098 23.7602L7.773 22.2474L7.9602 20.7994L6.3778 20.2842V20.285Z" fill="#C9DCFF"/>
<path id="Vector_5" d="M14.8057 26.6147V29.1603C14.8057 29.8227 15.3433 30.3603 16.0057 30.3603C16.6681 30.3603 17.2057 29.8227 17.2057 29.1603V26.6099L16.0081 25.5195L14.8057 26.6139V26.6147Z" fill="#C9DCFF"/>
<path id="Vector_6" d="M17.2057 5.39005V2.83965C17.2057 2.17725 16.6681 1.63965 16.0057 1.63965C15.3433 1.63965 14.8057 2.17725 14.8057 2.83965V5.38605L16.0081 6.48045L17.2057 5.39005Z" fill="#C9DCFF"/>
</g>
<path id="Vector_7" d="M25.6304 20.2854L27.2 19.7758C27.832 19.5678 28.176 18.8878 27.968 18.2638C27.76 17.6318 27.088 17.2798 26.456 17.4878L22.872 18.6558L18.368 15.9998L22.872 13.3438L26.456 14.5118C26.576 14.5518 26.704 14.5678 26.824 14.5678C27.336 14.5678 27.8 14.2478 27.968 13.7358C28.176 13.1118 27.832 12.4318 27.2 12.2238L25.6304 11.7142L24.048 11.1998L24.2352 9.75098L24.504 7.67178C24.592 7.01578 24.128 6.41578 23.472 6.32778C22.816 6.23978 22.216 6.70378 22.128 7.36778L21.616 11.2958L17.208 13.8958V8.63178L20.032 6.06378C20.52 5.62378 20.56 4.86378 20.112 4.36778C19.664 3.87978 18.904 3.84778 18.416 4.28778L17.2056 5.38938L16.008 6.47978L14.8056 5.38538L13.6 4.28778C13.104 3.84778 12.352 3.87978 11.904 4.36778C11.456 4.86378 11.488 5.62378 11.984 6.06378L14.808 8.63178V13.9038L10.4 11.3038L9.88798 7.36778C9.79998 6.70378 9.19198 6.23978 8.54398 6.32778C7.87998 6.41578 7.41598 7.01578 7.50398 7.67178L7.77278 9.75258L7.95998 11.2006L6.37758 11.7158L4.81598 12.2246C4.18398 12.4326 3.83998 13.1126 4.04798 13.7366C4.20798 14.2486 4.67998 14.5686 5.18398 14.5686C5.30398 14.5686 5.43198 14.5526 5.55998 14.5126L9.14398 13.3446L13.648 16.0006L9.14398 18.6566L5.55998 17.4886C4.92798 17.2806 4.24798 17.6326 4.04798 18.2646C3.83998 18.8886 4.18398 19.5686 4.81598 19.7766L6.37758 20.2854L7.95998 20.8006L7.77278 22.2486L7.50398 24.3286C7.41598 24.9846 7.87998 25.5846 8.54398 25.6726C8.59198 25.6806 8.64798 25.6806 8.69598 25.6806C9.28798 25.6806 9.80798 25.2406 9.88798 24.6326L10.4 20.6966L14.808 18.0966V23.3686L11.984 25.9366C11.488 26.3766 11.456 27.1366 11.904 27.6326C12.136 27.8886 12.464 28.0246 12.792 28.0246C13.08 28.0246 13.368 27.9206 13.6 27.7126L14.8056 26.615L16.008 25.5206L17.2056 26.611L18.416 27.7126C18.648 27.9206 18.936 28.0246 19.224 28.0246C19.552 28.0246 19.872 27.8886 20.112 27.6326C20.56 27.1366 20.52 26.3766 20.032 25.9366L17.208 23.3686V18.1046L21.616 20.7046L22.128 24.6326C22.208 25.2406 22.72 25.6806 23.312 25.6806C23.368 25.6806 23.416 25.6806 23.472 25.6726C24.128 25.5846 24.592 24.9846 24.504 24.3286L24.2352 22.2494L24.048 20.8006L25.6304 20.2854Z" fill="#94B8FF"/>
</g>
</svg>
