<svg width="18" height="19" viewBox="0 0 18 19" fill="none" xmlns="http://www.w3.org/2000/svg">
<g id="&#240;&#159;&#143;&#133;" clip-path="url(#clip0_932_11810)">
<g id="Group">
<path id="Vector" d="M7.86408 9.40259H11.2094C11.3804 9.40259 11.5365 9.30539 11.6126 9.15239L15.132 2.04824C15.2801 1.74899 15.0627 1.39844 14.7288 1.39844H11.3835C11.2125 1.39844 11.0564 1.49564 10.9803 1.64864L7.46088 8.75279C7.31283 9.05204 7.53018 9.40259 7.86408 9.40259Z" fill="#D12030"/>
<path id="Vector_2" d="M10.1356 9.40255H6.79027C6.61927 9.40255 6.46312 9.30535 6.38707 9.15235L2.86762 2.04775C2.71957 1.7485 2.93692 1.39795 3.27082 1.39795H6.61612C6.78712 1.39795 6.94327 1.49515 7.01932 1.64815L10.5388 8.7523C10.6868 9.05155 10.4695 9.4021 10.1356 9.4021V9.40255Z" fill="#EF4452"/>
<path id="Vector_3" d="M8.9998 17.6026C12.3549 17.6026 15.0748 14.8828 15.0748 11.5276C15.0748 8.17251 12.3549 5.45264 8.9998 5.45264C5.64468 5.45264 2.9248 8.17251 2.9248 11.5276C2.9248 14.8828 5.64468 17.6026 8.9998 17.6026Z" fill="#FFCD00"/>
<path id="Vector_4" d="M9.36213 8.24709L10.0929 9.72804C10.1519 9.84729 10.2653 9.92963 10.3971 9.94898L12.0311 10.1866C12.3623 10.2347 12.4946 10.642 12.2547 10.8755L11.0721 12.028C10.9767 12.1207 10.9335 12.2543 10.956 12.3853L11.235 14.0129C11.2917 14.3428 10.9452 14.5943 10.6491 14.4386L9.18753 13.67C9.07008 13.6084 8.92923 13.6084 8.81178 13.67L7.35018 14.4386C7.05408 14.5943 6.70758 14.3428 6.76428 14.0129L7.04328 12.3853C7.06578 12.2543 7.02213 12.1207 6.92718 12.028L5.74458 10.8755C5.50473 10.642 5.63703 10.2347 5.96823 10.1866L7.60218 9.94898C7.73358 9.93008 7.84743 9.84729 7.90638 9.72804L8.63718 8.24709C8.78523 7.94694 9.21363 7.94694 9.36213 8.24709Z" fill="#FFAA00"/>
</g>
</g>
<defs>
<clipPath id="clip0_932_11810">
<rect width="18" height="18" fill="white" transform="translate(0 0.5)"/>
</clipPath>
</defs>
</svg>
