<svg width="81" height="22" viewBox="0 0 81 22" fill="none" xmlns="http://www.w3.org/2000/svg">
<g id="Mandi">
<path id="Vector" d="M77.79 0C79.3596 0 80.5057 1.14609 80.5057 2.71574C80.5057 4.28539 79.3596 5.43148 77.79 5.43148C76.2203 5.43148 75.0742 4.28539 75.0742 2.71574C75.0742 1.14609 76.2203 0 77.79 0ZM80.0074 7.05096V21.701H75.5725V7.05096H80.0074Z" fill="#00B288"/>
<path id="Vector_2" d="M64.3518 22.0001C60.166 22.0001 57.251 18.7861 57.251 14.3512C57.251 9.91631 60.166 6.70227 64.3518 6.70227C66.2702 6.70227 67.6655 7.37498 68.5375 8.54599V0.722656H72.9724V21.6513H68.5375V20.1564C67.6655 21.3274 66.2702 22.0001 64.3518 22.0001ZM65.0494 18.213C67.217 18.213 68.6122 16.5936 68.6122 14.3512C68.6122 12.1088 67.217 10.4894 65.0494 10.4894C62.9316 10.4894 61.5862 12.1088 61.5862 14.3512C61.5862 16.5936 62.9316 18.213 65.0494 18.213Z" fill="#00B288"/>
<path id="Vector_3" d="M41.5195 21.6512V7.05096H45.9544V8.54586C46.8264 7.37486 48.1718 6.70215 50.0405 6.70215C53.4289 6.70215 55.746 9.16874 55.746 13.205V21.6512H51.3111V13.9524C51.3111 11.735 50.4142 10.5142 48.7449 10.5142C47.0008 10.5142 45.9544 11.8845 45.9544 14.1518V21.6512H41.5195Z" fill="#00B288"/>
<path id="Vector_4" d="M30.299 22C26.1133 22 23.1982 18.786 23.1982 14.3511C23.1982 9.91619 26.1133 6.70215 30.299 6.70215C32.2175 6.70215 33.6127 7.37486 34.4848 8.54586V7.05096H38.9196V21.6512H34.4848V20.1563C33.6127 21.3273 32.2175 22 30.299 22ZM30.9967 18.2129C33.1643 18.2129 34.5595 16.5934 34.5595 14.3511C34.5595 12.1087 33.1643 10.4892 30.9967 10.4892C28.8789 10.4892 27.5335 12.1087 27.5335 14.3511C27.5335 16.5934 28.8789 18.2129 30.9967 18.2129Z" fill="#00B288"/>
<path id="Vector_5" d="M0 21.6515V1.3457H3.61268L10.6138 12.707L17.6149 1.3457H21.2276V21.6515H16.6931V10.5144L11.9841 18.3129H9.24349L4.53454 10.5144V21.6515H0Z" fill="#00B288"/>
</g>
</svg>
