<svg width="32" height="32" viewBox="0 0 32 32" fill="none" xmlns="http://www.w3.org/2000/svg">
<g id="&#226;&#152;&#128;&#239;&#184;&#143;" clip-path="url(#clip0_2431_16048)">
<path id="Vector" d="M28.0106 18.7578L30.1394 16.629C30.4866 16.2818 30.4866 15.7186 30.1394 15.3714L28.0106 13.2426C27.7858 13.0178 27.6978 12.6906 27.7802 12.3834L28.5594 9.47539C28.6866 9.00099 28.405 8.51299 27.9306 8.38579L25.0226 7.60659C24.7154 7.52419 24.4762 7.28419 24.3938 6.97779L23.6146 4.06979C23.4874 3.59539 22.9994 3.31379 22.525 3.44099L19.617 4.22019C19.3098 4.30259 18.9826 4.21459 18.7578 3.98979L16.629 1.86099C16.2818 1.51379 15.7186 1.51379 15.3714 1.86099L13.2426 3.98979C13.0178 4.21459 12.6906 4.30259 12.3834 4.22019L9.47539 3.44099C9.00099 3.31379 8.51299 3.59539 8.38579 4.06979L7.60659 6.97779C7.52419 7.28499 7.28419 7.52419 6.97779 7.60659L4.06979 8.38579C3.59539 8.51299 3.31379 9.00099 3.44099 9.47539L4.22019 12.3834C4.30259 12.6906 4.21459 13.0178 3.98979 13.2426L1.86099 15.3714C1.51379 15.7186 1.51379 16.2818 1.86099 16.629L3.98979 18.7578C4.21459 18.9826 4.30259 19.3098 4.22019 19.617L3.44099 22.525C3.31379 22.9994 3.59539 23.4874 4.06979 23.6146L6.97779 24.3938C7.28499 24.4762 7.52419 24.7162 7.60659 25.0226L8.38579 27.9306C8.51299 28.405 9.00099 28.6866 9.47539 28.5594L12.3834 27.7802C12.6906 27.6978 13.0178 27.7858 13.2426 28.0106L15.3714 30.1394C15.7186 30.4866 16.2818 30.4866 16.629 30.1394L18.7578 28.0106C18.9826 27.7858 19.3098 27.6978 19.617 27.7802L22.525 28.5594C22.9994 28.6866 23.4874 28.405 23.6146 27.9306L24.3938 25.0226C24.4762 24.7154 24.7162 24.4762 25.0226 24.3938L27.9306 23.6146C28.405 23.4874 28.6866 22.9994 28.5594 22.525L27.7802 19.617C27.6978 19.3098 27.7858 18.9826 28.0106 18.7578Z" fill="#FFCD00"/>
<path id="Vector_2" d="M16 24.4591C20.6357 24.4591 24.3936 20.7011 24.3936 16.0655C24.3936 11.4298 20.6357 7.67188 16 7.67188C11.3644 7.67188 7.60645 11.4298 7.60645 16.0655C7.60645 20.7011 11.3644 24.4591 16 24.4591Z" fill="#FFAA00"/>
</g>
<defs>
<clipPath id="clip0_2431_16048">
<rect width="32" height="32" fill="white"/>
</clipPath>
</defs>
</svg>
