<svg width="13" height="12" viewBox="0 0 13 12" fill="none" xmlns="http://www.w3.org/2000/svg">
<g id="&#240;&#159;&#143;&#158;&#239;&#184;&#143;" clip-path="url(#clip0_960_10977)">
<path id="Vector" d="M8.85352 8.66982H1.35352V5.06682C1.65442 4.70982 2.10442 4.48242 2.60782 4.48242C3.22372 4.48242 3.75952 4.82232 4.04002 5.32422C4.14862 5.30262 4.26262 5.29632 4.38082 5.31192C4.62412 5.34432 4.83832 5.48802 5.00392 5.66922C5.30722 6.00222 5.33602 6.29592 5.28502 6.56082C5.46382 6.57912 5.63182 6.62802 5.78542 6.70572C5.85292 6.21132 6.27262 5.82912 6.78562 5.82912C7.17952 5.82912 7.51732 6.05622 7.68532 6.38442C7.78042 6.34152 7.88512 6.31662 7.99612 6.31632C8.21572 6.31632 8.41762 6.43992 8.55982 6.60732C8.79082 6.87942 8.78212 7.10142 8.72062 7.30002C9.03682 7.30002 9.34252 7.46862 9.47332 7.75662C9.61492 8.06832 9.57052 8.37192 9.42052 8.59962C9.23842 8.64372 9.04912 8.66982 8.85352 8.66982Z" fill="white"/>
<g id="Group">
<path id="Vector_2" d="M8.7998 1.05005H3.6998C2.37432 1.05005 1.2998 2.12457 1.2998 3.45005V8.55005C1.2998 9.87553 2.37432 10.95 3.6998 10.95H8.7998C10.1253 10.95 11.1998 9.87553 11.1998 8.55005V3.45005C11.1998 2.12457 10.1253 1.05005 8.7998 1.05005Z" fill="#B8E0FF"/>
<g id="Group_2">
<path id="Vector_3" d="M9.27363 3.32906C9.11613 3.02996 8.68803 3.02996 8.53053 3.32906L5.72523 8.65766C5.57793 8.93726 5.78073 9.27326 6.09663 9.27326H11.088C11.16 9.04496 11.1993 8.80226 11.1993 8.54996V6.98786L9.27363 3.32906Z" fill="#23B169"/>
<path id="Vector_4" d="M5.80114 5.40982L4.09144 8.65762C3.94414 8.93722 4.14694 9.27322 4.46284 9.27322H8.57794L6.54424 5.41012C6.38674 5.11102 5.95864 5.11072 5.80114 5.40982Z" fill="#0A9F60"/>
<path id="Vector_5" d="M1.2998 5.82812V8.55002C1.2998 8.80202 1.3391 9.04502 1.4111 9.27332H2.4179C2.7338 9.27332 2.9366 8.93732 2.7893 8.65772L1.2998 5.82812Z" fill="#0A9F60"/>
</g>
<path id="Vector_6" d="M1.36105 8.67334C1.34215 8.67334 1.32475 8.67454 1.30615 8.67484C1.37155 9.94204 2.41645 10.95 3.69985 10.95H8.79985C10.0839 10.95 11.1291 9.94114 11.1936 8.67334H1.36105Z" fill="#7BD58F"/>
</g>
<path id="Vector_7" d="M8.14177 5.63269C8.52067 5.63269 8.52067 6.02779 8.89957 6.02779C9.27847 6.02779 9.27877 5.63269 9.65797 5.63269C10.0372 5.63269 10.0375 6.02779 10.417 6.02779C10.5211 6.02779 10.5958 5.99689 10.6585 5.95369L9.27877 3.33289C9.11857 3.02869 8.68327 3.02869 8.52307 3.33289L7.14307 5.95399C7.20547 5.99689 7.27987 6.02779 7.38367 6.02779C7.76257 6.02779 7.76287 5.63269 8.14177 5.63269Z" fill="#4FC578"/>
<path id="Vector_8" d="M2.78936 8.65777C2.78936 8.65777 3.29816 9.06247 3.92306 9.23827C4.60586 9.43057 6.72956 9.48787 6.72956 10.1587C6.72956 10.7467 4.74536 10.9498 4.74536 10.9498H8.66126C8.66126 10.9498 9.12026 10.6879 9.04676 10.2295C8.98286 9.83077 8.49446 9.46477 7.17986 9.23917C5.86526 9.01357 4.29566 8.93887 4.09136 8.65747H2.78906L2.78936 8.65777Z" fill="#64A7FF"/>
</g>
<defs>
<clipPath id="clip0_960_10977">
<rect width="12" height="12" fill="white" transform="translate(0.25)"/>
</clipPath>
</defs>
</svg>
