<svg width="40" height="40" viewBox="0 0 40 40" fill="none" xmlns="http://www.w3.org/2000/svg">
<g id="&#226;&#156;&#141;&#240;&#159;&#143;&#187;" clip-path="url(#clip0_932_12525)">
<g id="Group">
<g id="Group_2">
<path id="Vector" d="M37.2316 22.8726C37.2316 19.4736 35.2976 16.3746 32.2416 14.8866C27.4086 12.5336 20.4056 9.13163 17.5526 7.78363C15.8856 6.99663 13.9096 7.36363 12.6306 8.69063L5.09265 16.5136C4.32065 17.3146 3.88965 18.3826 3.88965 19.4946V25.9276C3.88965 29.4866 6.77465 32.3726 10.3346 32.3726L28.3616 32.3416C33.2626 32.3336 37.2316 28.3576 37.2316 23.4566V22.8726Z" fill="#FFCCA8"/>
<path id="Vector_2" d="M19.5227 21.3207V17.7197L13.0977 24.1447L19.5227 21.3207Z" fill="#E68E51"/>
</g>
<g id="Group_3">
<path id="Vector_3" d="M31.5619 4.40044L29.9069 2.74444C29.5289 2.36644 28.9159 2.36644 28.5379 2.74444L1.85789 29.4244C1.73589 29.5464 1.64889 29.6974 1.60389 29.8644L0.78489 32.9214C0.68689 33.2864 1.02089 33.6194 1.38489 33.5214L4.44189 32.7024C4.60789 32.6574 4.75989 32.5704 4.88189 32.4484L6.30389 31.0264C6.05489 30.7024 5.85689 30.3324 5.73889 29.9204C5.28089 28.3164 6.08689 26.6214 7.62089 25.9634L13.7639 23.5674L31.5619 5.76944C31.9399 5.39144 31.9399 4.77844 31.5619 4.40044Z" fill="#4B596A"/>
<path id="Vector_4" d="M5.73981 29.9203C5.85781 30.3323 6.05481 30.7023 6.30481 31.0263C6.96481 31.8843 8.01881 32.3943 9.15181 32.3183L23.1418 32.2353L21.5558 20.5273L13.7638 23.5673L7.62081 25.9633C6.08681 26.6213 5.28281 28.3153 5.73981 29.9203Z" fill="#FFCCA8"/>
</g>
</g>
</g>
<defs>
<clipPath id="clip0_932_12525">
<rect width="40" height="40" fill="white"/>
</clipPath>
</defs>
</svg>
