<svg width="16" height="16" viewBox="0 0 16 17" fill="none" xmlns="http://www.w3.org/2000/svg">
<g id="icon-trash">
<path id="Subtract" fill-rule="evenodd" clip-rule="evenodd" d="M11.0001 3.48546V3.63665C11.6366 3.69492 12.2678 3.77154 12.8932 3.86599C13.1247 3.90095 13.3555 3.93837 13.5854 3.9782C13.8575 4.02533 14.0399 4.28411 13.9927 4.5562C13.9456 4.82829 13.6868 5.01066 13.4147 4.96352C13.3683 4.95549 13.3219 4.94755 13.2754 4.93971L12.6051 13.6534C12.525 14.6954 11.6561 15.5 10.611 15.5H5.38913C4.34406 15.5 3.47517 14.6954 3.39502 13.6534L2.72474 4.93971C2.67826 4.94755 2.63183 4.95549 2.58542 4.96352C2.31333 5.01066 2.05455 4.82829 2.00742 4.5562C1.96029 4.28411 2.14265 4.02533 2.41474 3.9782C2.64467 3.93837 2.87543 3.90095 3.10699 3.86599C3.73239 3.77154 4.3636 3.69492 5.00008 3.63665V3.48546C5.00008 2.44248 5.80844 1.55212 6.87704 1.51794C7.24994 1.50601 7.62432 1.5 8.00008 1.5C8.37585 1.5 8.75022 1.50601 9.12313 1.51794C10.1917 1.55212 11.0001 2.44248 11.0001 3.48546ZM6.90901 2.51743C7.27126 2.50584 7.63498 2.5 8.00008 2.5C8.36518 2.5 8.7289 2.50584 9.09115 2.51743C9.59423 2.53352 10.0001 2.95596 10.0001 3.48546V3.56055C9.33851 3.52038 8.67164 3.5 8.00008 3.5C7.32852 3.5 6.66166 3.52038 6.00008 3.56055V3.48546C6.00008 2.95596 6.40593 2.53352 6.90901 2.51743ZM6.67248 6.48078C6.66187 6.20484 6.42957 5.98976 6.15364 6.00037C5.8777 6.01098 5.66261 6.24328 5.67322 6.51922L5.90399 12.5192C5.9146 12.7952 6.1469 13.0102 6.42284 12.9996C6.69878 12.989 6.91386 12.7567 6.90325 12.4808L6.67248 6.48078ZM10.3263 6.51922C10.3369 6.24328 10.1219 6.01098 9.84591 6.00037C9.56998 5.98976 9.33768 6.20484 9.32707 6.48078L9.0963 12.4808C9.08568 12.7567 9.30077 12.989 9.57671 12.9996C9.85265 13.0102 10.0849 12.7952 10.0956 12.5192L10.3263 6.51922Z" fill="currentColor"/>
</g>
</svg>
