<svg width="18" height="19" viewBox="0 0 18 19" fill="none" xmlns="http://www.w3.org/2000/svg">
<g id="&#226;&#154;&#153;&#239;&#184;&#143;" clip-path="url(#clip0_932_11851)">
<g id="Group">
<path id="Vector" d="M14.8472 9.49983C14.8472 9.49712 14.8472 9.49487 14.8472 9.49217C14.8463 9.00077 15.0097 8.52332 15.3512 8.16963L16.1585 7.33442C16.3786 7.10717 16.4209 6.76157 16.2629 6.48752L15.2401 4.71588C15.0821 4.44183 14.7613 4.30593 14.4544 4.38243L13.3955 4.64702C12.8951 4.77212 12.3655 4.69652 11.9195 4.43687L11.9065 4.42923C11.4682 4.17408 11.1455 3.75917 11.006 3.27137L10.7041 2.21702C10.6172 1.91282 10.3391 1.70312 10.0228 1.70312H7.97707C7.66072 1.70312 7.38262 1.91282 7.29577 2.21702L6.97357 3.34247C6.84577 3.78842 6.55192 4.16912 6.14827 4.39772C6.10687 4.42112 6.06547 4.44542 6.02497 4.46972C5.62132 4.71137 5.13847 4.78067 4.68217 4.66637L3.54502 4.38243C3.23812 4.30593 2.91772 4.44183 2.75932 4.71588L1.73647 6.48752C1.57852 6.76157 1.62082 7.10717 1.84087 7.33442L2.64817 8.16963C2.98972 8.52332 3.15352 9.00032 3.15262 9.49217C3.15262 9.49487 3.15262 9.49757 3.15262 9.49983C3.15262 9.50252 3.15262 9.50478 3.15262 9.50747C3.15352 9.99932 2.98972 10.4763 2.64817 10.83L1.84087 11.6652C1.62082 11.8925 1.57852 12.2381 1.73647 12.5121L2.75932 14.2838C2.91727 14.5578 3.23812 14.6937 3.54502 14.6172L4.68172 14.3333C5.13802 14.2194 5.62087 14.2883 6.02452 14.5299C6.06547 14.5547 6.10687 14.5785 6.14827 14.6019C6.55192 14.8305 6.84577 15.2112 6.97357 15.6572L7.29577 16.7826C7.38262 17.0868 7.66072 17.2965 7.97707 17.2965H10.0228C10.3391 17.2965 10.6172 17.0868 10.7041 16.7826L11.0263 15.6572C11.1541 15.2112 11.4479 14.8305 11.8516 14.6019C11.893 14.5785 11.9344 14.5542 11.9753 14.5299C12.379 14.2883 12.8618 14.219 13.3181 14.3333L14.4548 14.6172C14.7617 14.6937 15.0821 14.5578 15.2405 14.2838L16.2634 12.5121C16.4213 12.2381 16.379 11.8925 16.159 11.6652L15.3517 10.83C15.0101 10.4768 14.8468 9.99932 14.8477 9.50747C14.8477 9.50478 14.8472 9.50252 14.8472 9.49983Z" fill="#A3ADB7"/>
<path id="Vector_2" d="M8.99986 12.7731C7.19491 12.7731 5.72656 11.3043 5.72656 9.49982C5.72656 7.69532 7.19536 6.22607 8.99986 6.22607C10.8044 6.22607 12.2736 7.69487 12.2736 9.49982C12.2736 11.3048 10.8048 12.7731 8.99986 12.7731ZM8.99986 7.57562C7.93966 7.57562 7.07656 8.43872 7.07656 9.49937C7.07656 10.56 7.93966 11.4227 8.99986 11.4227C10.0601 11.4227 10.9236 10.5596 10.9236 9.49937C10.9236 8.43917 10.0605 7.57562 8.99986 7.57562Z" fill="#303D4C"/>
</g>
</g>
<defs>
<clipPath id="clip0_932_11851">
<rect width="18" height="18" fill="white" transform="translate(0 0.5)"/>
</clipPath>
</defs>
</svg>
