<svg width="100%" height="100%" viewBox="0 0 16 17" fill="current" xmlns="http://www.w3.org/2000/svg">
<path fill-rule="evenodd" clip-rule="evenodd" d="M4.73257 10.1007H5.93257V8.90067H4.73257V10.1007ZM4.73257 7.6H5.93257V6.4H4.73257V7.6ZM4.73257 5.1H5.93257V3.9H4.73257V5.1ZM7.3999 10.1007H8.5999V8.90067H7.3999V10.1007ZM7.3999 7.6H8.5999V6.4H7.3999V7.6ZM7.3999 5.1H8.5999V3.9H7.3999V5.1ZM10.0679 10.1007H11.2679V8.90067H10.0679V10.1007ZM10.0679 7.6H11.2679V6.4H10.0679V7.6ZM10.0679 5.1H11.2679V3.9H10.0679V5.1ZM13.0019 1.5H2.9979C2.9103 1.49991 2.82353 1.51709 2.74257 1.55056C2.66161 1.58402 2.58804 1.63311 2.52606 1.69503C2.46409 1.75694 2.41492 1.83046 2.38138 1.91139C2.34783 1.99232 2.33057 2.07906 2.33057 2.16667V14.7587C2.33057 14.9708 2.41485 15.1743 2.56488 15.3244C2.71491 15.4744 2.91839 15.5587 3.13057 15.5587H6.66657V13.0567C6.66657 12.8799 6.7368 12.7103 6.86183 12.5853C6.98685 12.4602 7.15642 12.39 7.33323 12.39H8.66657C8.84338 12.39 9.01295 12.4602 9.13797 12.5853C9.263 12.7103 9.33323 12.8799 9.33323 13.0567V15.5587H12.8686C13.0807 15.5587 13.2842 15.4744 13.4343 15.3244C13.5843 15.1743 13.6686 14.9708 13.6686 14.7587V2.16667C13.6686 1.98986 13.5983 1.82029 13.4733 1.69526C13.3483 1.57024 13.1787 1.5 13.0019 1.5Z" fill="current"/>
</svg>
