<svg width="24" height="24" viewBox="0 0 24 24" fill="none" xmlns="http://www.w3.org/2000/svg">
<path fill-rule="evenodd" clip-rule="evenodd" d="M3.9 8.625C3.9 8.28 4.035 7.935 4.29 7.665C4.543 7.4131 4.88548 7.27168 5.2425 7.27168C5.59952 7.27168 5.942 7.4131 6.195 7.665L12 13.47L17.79 7.665C18.043 7.4131 18.3855 7.27168 18.7425 7.27168C19.0995 7.27168 19.442 7.4131 19.695 7.665C19.9469 7.918 20.0883 8.26048 20.0883 8.6175C20.0883 8.97452 19.9469 9.317 19.695 9.57L12.945 16.32C12.692 16.5719 12.3495 16.7133 11.9925 16.7133C11.6355 16.7133 11.293 16.5719 11.04 16.32L4.29 9.57C4.035 9.315 3.9 8.97 3.9 8.625Z" fill="#ADB1BA"/>
</svg>
