<svg width="20" height="20" viewBox="0 0 20 20" fill="none" xmlns="http://www.w3.org/2000/svg">
<g clip-path="url(#clip0_1329_14487)">
<path d="M5.99161 6.98525C7.31461 7.39175 8.19061 8.64475 8.61211 9.39675C8.79711 9.72675 8.67011 10.1402 8.33161 10.3097C7.56011 10.6957 6.13211 11.2413 4.80911 10.8353C3.48611 10.4288 2.61011 9.17575 2.18861 8.42375C2.00361 8.09375 2.13061 7.68025 2.46911 7.51075C3.24061 7.12475 4.66861 6.57925 5.99161 6.98525Z" fill="#0A9F60"/>
<path d="M13.7586 4.56745C15.0901 3.82145 16.7561 4.07745 17.6776 4.31395C18.0816 4.41745 18.3146 4.83395 18.1921 5.23245C17.9126 6.14145 17.2606 7.69595 15.9291 8.44195C14.5976 9.18795 12.9316 8.93195 12.0101 8.69545C11.6061 8.59195 11.3731 8.17545 11.4956 7.77695C11.7751 6.86795 12.4271 5.31345 13.7586 4.56745Z" fill="#0A9F60"/>
<path d="M10.6525 2.87513C11.611 4.95713 10.317 7.59813 10.317 7.59813C10.317 7.59813 7.4695 6.86313 6.5115 4.78113C5.856 3.35663 6.254 1.67113 6.5715 0.748134C6.71 0.344634 7.1535 0.140634 7.55 0.297634C8.4575 0.657134 9.997 1.45113 10.6525 2.87513Z" fill="#0A9F60"/>
<path d="M10.4211 7.01172H9.89014V12.4642H10.4211V7.01172Z" fill="#0A9F60"/>
<path d="M8.54828 9.58077L8.39893 10.0903L10.05 10.5743L10.1993 10.0647L8.54828 9.58077Z" fill="#0A9F60"/>
<path d="M11.631 7.94324L10.0156 8.9502L10.2968 9.40124L11.9121 8.39428L11.631 7.94324Z" fill="#0A9F60"/>
<path d="M13.6671 19.3322H6.64508C6.37158 19.3322 6.13708 19.1377 6.08658 18.8692L5.01758 13.2012H15.2951L14.2261 18.8692C14.1756 19.1377 13.9401 19.3322 13.6671 19.3322Z" fill="#6E483D"/>
<path d="M15.6676 11.7207H4.64409C4.3094 11.7207 4.03809 11.992 4.03809 12.3267V13.1612C4.03809 13.4959 4.3094 13.7672 4.64409 13.7672H15.6676C16.0023 13.7672 16.2736 13.4959 16.2736 13.1612V12.3267C16.2736 11.992 16.0023 11.7207 15.6676 11.7207Z" fill="#86584A"/>
</g>
<defs>
<clipPath id="clip0_1329_14487">
<rect width="20" height="20" fill="white"/>
</clipPath>
</defs>
</svg>
