<svg width="32" height="32" viewBox="0 0 32 32" fill="none" xmlns="http://www.w3.org/2000/svg">
<g id="&#226;&#152;&#129;&#239;&#184;&#143;" clip-path="url(#clip0_2431_16065)">
<g id="Group">
<path id="Vector" d="M24.8208 25.342H6.99756V16.1084L24.584 17.2948L24.8208 25.342Z" fill="#E5E8EB"/>
<path id="Vector_2" d="M18.3113 19.7856C22.3783 19.7856 25.6753 16.4886 25.6753 12.4216C25.6753 8.35459 22.3783 5.05762 18.3113 5.05762C14.2442 5.05762 10.9473 8.35459 10.9473 12.4216C10.9473 16.4886 14.2442 19.7856 18.3113 19.7856Z" fill="#E5E8EB"/>
<path id="Vector_3" d="M24.556 25.3415C28.0045 25.3415 30.8 22.546 30.8 19.0975C30.8 15.649 28.0045 12.8535 24.556 12.8535C21.1075 12.8535 18.312 15.649 18.312 19.0975C18.312 22.546 21.1075 25.3415 24.556 25.3415Z" fill="#E5E8EB"/>
<path id="Vector_4" d="M6.9978 25.3413C10.1997 25.3413 12.7954 22.7456 12.7954 19.5437C12.7954 16.3418 10.1997 13.7461 6.9978 13.7461C3.79587 13.7461 1.2002 16.3418 1.2002 19.5437C1.2002 22.7456 3.79587 25.3413 6.9978 25.3413Z" fill="#E5E8EB"/>
<path id="Vector_5" d="M10.9473 18.2344C13.5682 18.2344 15.6929 16.1097 15.6929 13.4888C15.6929 10.8678 13.5682 8.74316 10.9473 8.74316C8.32634 8.74316 6.20166 10.8678 6.20166 13.4888C6.20166 16.1097 8.32634 18.2344 10.9473 18.2344Z" fill="#E5E8EB"/>
</g>
</g>
<defs>
<clipPath id="clip0_2431_16065">
<rect width="32" height="32" fill="white"/>
</clipPath>
</defs>
</svg>
