<svg width="20" height="20" viewBox="0 0 20 20" fill="none" xmlns="http://www.w3.org/2000/svg">
<g clip-path="url(#clip0_1329_14498)">
<path d="M10.4897 4.60156H9.51073C9.24066 4.60156 9.02173 4.8205 9.02173 5.09056V18.7156C9.02173 18.9856 9.24066 19.2046 9.51073 19.2046H10.4897C10.7598 19.2046 10.9787 18.9856 10.9787 18.7156V5.09056C10.9787 4.8205 10.7598 4.60156 10.4897 4.60156Z" fill="#86584A"/>
<path d="M10.0001 15.3801C14.0528 15.3801 17.3381 12.0948 17.3381 8.0421C17.3381 3.98944 14.0528 0.704102 10.0001 0.704102C5.94744 0.704102 2.66211 3.98944 2.66211 8.0421C2.66211 12.0948 5.94744 15.3801 10.0001 15.3801Z" fill="#0A9F60"/>
<path d="M17.3381 8.04209C17.3381 12.0946 2.66211 12.0946 2.66211 8.04209C2.66211 3.98959 5.94761 0.70459 10.0001 0.70459C14.0526 0.70459 17.3381 3.98959 17.3381 8.04209Z" fill="#23B169"/>
</g>
<defs>
<clipPath id="clip0_1329_14498">
<rect width="20" height="20" fill="white"/>
</clipPath>
</defs>
</svg>
