<svg width="32" height="32" viewBox="0 0 32 32" fill="none" xmlns="http://www.w3.org/2000/svg">
<g id="&#240;&#159;&#140;&#165;&#239;&#184;&#143;" clip-path="url(#clip0_2431_16053)">
<g id="Group">
<g id="Group_2">
<path id="Vector" d="M16.4041 13.744L17.6297 12.5184C17.8297 12.3184 17.8297 11.9944 17.6297 11.7944L16.4041 10.5688C16.2745 10.4392 16.2241 10.2512 16.2713 10.0744L16.7201 8.40003C16.7929 8.12723 16.6313 7.84643 16.3577 7.77283L14.6833 7.32403C14.5065 7.27683 14.3689 7.13843 14.3209 6.96163L13.8721 5.28723C13.7993 5.01443 13.5185 4.85203 13.2449 4.92483L11.5705 5.37363C11.3937 5.42083 11.2049 5.37043 11.0761 5.24083L9.85046 4.01523C9.65047 3.81523 9.32646 3.81523 9.12647 4.01523L7.90087 5.24083C7.77127 5.37043 7.58327 5.42083 7.40647 5.37363L5.73207 4.92483C5.45927 4.85203 5.17847 5.01363 5.10487 5.28723L4.65607 6.96163C4.60887 7.13843 4.47047 7.27603 4.29367 7.32403L2.61927 7.77283C2.34647 7.84563 2.18407 8.12643 2.25687 8.40003L2.70567 10.0744C2.75287 10.2512 2.70247 10.44 2.57287 10.5688L1.34727 11.7944C1.14727 11.9944 1.14727 12.3184 1.34727 12.5184L2.57287 13.744C2.70247 13.8736 2.75287 14.0616 2.70567 14.2384L2.25687 15.9128C2.18407 16.1856 2.34567 16.4664 2.61927 16.54L4.29367 16.9888C4.47047 17.036 4.60807 17.1744 4.65607 17.3512L5.10487 19.0256C5.17767 19.2984 5.45847 19.4608 5.73207 19.388L7.40647 18.9392C7.58327 18.892 7.77207 18.9424 7.90087 19.072L9.12647 20.2976C9.32646 20.4976 9.65047 20.4976 9.85046 20.2976L11.0761 19.072C11.2057 18.9424 11.3937 18.892 11.5705 18.9392L13.2449 19.388C13.5177 19.4608 13.7985 19.2992 13.8721 19.0256L14.3209 17.3512C14.3681 17.1744 14.5065 17.0368 14.6833 16.9888L16.3577 16.54C16.6305 16.4672 16.7929 16.1864 16.7201 15.9128L16.2713 14.2384C16.2241 14.0616 16.2745 13.8728 16.4041 13.744Z" fill="#FFCD00"/>
<path id="Vector_2" d="M9.48972 17.0263C12.1584 17.0263 14.3217 14.8629 14.3217 12.1943C14.3217 9.52566 12.1584 7.3623 9.48972 7.3623C6.82108 7.3623 4.65771 9.52566 4.65771 12.1943C4.65771 14.8629 6.82108 17.0263 9.48972 17.0263Z" fill="#FFAA00"/>
</g>
<g id="Group_3">
<path id="Vector_3" d="M24.8771 28.1337H7.22266V18.9873L24.6427 20.1625L24.8771 28.1337Z" fill="#E5E8EB"/>
<path id="Vector_4" d="M18.4292 22.6298C22.4578 22.6298 25.7236 19.364 25.7236 15.3354C25.7236 11.3068 22.4578 8.04102 18.4292 8.04102C14.4006 8.04102 11.1348 11.3068 11.1348 15.3354C11.1348 19.364 14.4006 22.6298 18.4292 22.6298Z" fill="#E5E8EB"/>
<path id="Vector_5" d="M24.6148 28.1339C28.031 28.1339 30.8004 25.3645 30.8004 21.9483C30.8004 18.5321 28.031 15.7627 24.6148 15.7627C21.1986 15.7627 18.4292 18.5321 18.4292 21.9483C18.4292 25.3645 21.1986 28.1339 24.6148 28.1339Z" fill="#E5E8EB"/>
<path id="Vector_6" d="M7.22269 28.1339C10.3946 28.1339 12.9659 25.5625 12.9659 22.3907C12.9659 19.2188 10.3946 16.6475 7.22269 16.6475C4.05081 16.6475 1.47949 19.2188 1.47949 22.3907C1.47949 25.5625 4.05081 28.1339 7.22269 28.1339Z" fill="#E5E8EB"/>
<path id="Vector_7" d="M11.1349 21.093C13.7311 21.093 15.8357 18.9884 15.8357 16.3922C15.8357 13.796 13.7311 11.6914 11.1349 11.6914C8.5387 11.6914 6.43408 13.796 6.43408 16.3922C6.43408 18.9884 8.5387 21.093 11.1349 21.093Z" fill="#E5E8EB"/>
</g>
</g>
</g>
<defs>
<clipPath id="clip0_2431_16053">
<rect width="32" height="32" fill="white"/>
</clipPath>
</defs>
</svg>
