<svg width="32" height="32" viewBox="0 0 32 32" fill="none" xmlns="http://www.w3.org/2000/svg">
<g id="&#240;&#159;&#140;&#166;&#239;&#184;&#143;" clip-path="url(#clip0_2431_16306)">
<g id="Group">
<g id="Group_2">
<path id="Vector" d="M16.3495 10.1889L17.4095 9.12888C17.5823 8.95608 17.5823 8.67528 17.4095 8.50248L16.3495 7.44248C16.2375 7.33048 16.1943 7.16728 16.2351 7.01448L16.6231 5.56648C16.6863 5.33048 16.5463 5.08728 16.3103 5.02408L14.8623 4.63608C14.7095 4.59528 14.5903 4.47608 14.5495 4.32328L14.1615 2.87528C14.0983 2.63928 13.8551 2.49848 13.6191 2.56248L12.1711 2.95048C12.0183 2.99128 11.8551 2.94808 11.7431 2.83608L10.6831 1.77608C10.5103 1.60328 10.2295 1.60328 10.0567 1.77608L8.99668 2.83608C8.88468 2.94808 8.72148 2.99128 8.56868 2.95048L7.12068 2.56248C6.88468 2.49928 6.64148 2.63928 6.57828 2.87528L6.19028 4.32328C6.14948 4.47608 6.03028 4.59528 5.87748 4.63608L4.42948 5.02408C4.19348 5.08728 4.05268 5.33048 4.11668 5.56648L4.50468 7.01448C4.54548 7.16728 4.50228 7.33048 4.39028 7.44248L3.33028 8.50248C3.15748 8.67528 3.15748 8.95608 3.33028 9.12888L4.39028 10.1889C4.50228 10.3009 4.54548 10.4641 4.50468 10.6169L4.11668 12.0649C4.05348 12.3009 4.19348 12.5441 4.42948 12.6073L5.87748 12.9953C6.03028 13.0361 6.14948 13.1553 6.19028 13.3081L6.57828 14.7561C6.64148 14.9921 6.88468 15.1329 7.12068 15.0689L8.56868 14.6809C8.72148 14.6401 8.88468 14.6833 8.99668 14.7953L10.0567 15.8553C10.2295 16.0281 10.5103 16.0281 10.6831 15.8553L11.7431 14.7953C11.8551 14.6833 12.0183 14.6401 12.1711 14.6809L13.6191 15.0689C13.8551 15.1321 14.0983 14.9921 14.1615 14.7561L14.5495 13.3081C14.5903 13.1553 14.7095 13.0361 14.8623 12.9953L16.3103 12.6073C16.5463 12.5441 16.6871 12.3009 16.6231 12.0649L16.2351 10.6169C16.1943 10.4641 16.2375 10.3009 16.3495 10.1889Z" fill="#FFCD00"/>
<path id="Vector_2" d="M10.3696 13.0283C12.6777 13.0283 14.5488 11.1572 14.5488 8.84912C14.5488 6.54101 12.6777 4.66992 10.3696 4.66992C8.06152 4.66992 6.19043 6.54101 6.19043 8.84912C6.19043 11.1572 8.06152 13.0283 10.3696 13.0283Z" fill="#FFAA00"/>
</g>
<g id="Group_3">
<path id="Vector_3" d="M23.6778 22.634H8.4082V14.7236L23.4746 15.7396L23.6778 22.634Z" fill="#E5E8EB"/>
<path id="Vector_4" d="M18.1008 17.8735C21.585 17.8735 24.4096 15.0489 24.4096 11.5647C24.4096 8.08041 21.585 5.25586 18.1008 5.25586C14.6165 5.25586 11.792 8.08041 11.792 11.5647C11.792 15.0489 14.6165 17.8735 18.1008 17.8735Z" fill="#E5E8EB"/>
<path id="Vector_5" d="M23.4507 22.6347C26.4052 22.6347 28.8003 20.2397 28.8003 17.2851C28.8003 14.3306 26.4052 11.9355 23.4507 11.9355C20.4962 11.9355 18.1011 14.3306 18.1011 17.2851C18.1011 20.2397 20.4962 22.6347 23.4507 22.6347Z" fill="#E5E8EB"/>
<path id="Vector_6" d="M8.40812 22.6346C11.1514 22.6346 13.3753 20.4107 13.3753 17.6674C13.3753 14.9241 11.1514 12.7002 8.40812 12.7002C5.66481 12.7002 3.44092 14.9241 3.44092 17.6674C3.44092 20.4107 5.66481 22.6346 8.40812 22.6346Z" fill="#E5E8EB"/>
<path id="Vector_7" d="M11.7922 16.5443C14.0375 16.5443 15.8578 14.7241 15.8578 12.4787C15.8578 10.2333 14.0375 8.41309 11.7922 8.41309C9.54679 8.41309 7.72656 10.2333 7.72656 12.4787C7.72656 14.7241 9.54679 16.5443 11.7922 16.5443Z" fill="#E5E8EB"/>
</g>
</g>
<path id="Vector_8" d="M14.0416 28.0956C14.2104 27.4492 15.564 25.8364 16.2432 25.0572C16.4024 24.874 16.7016 24.9524 16.7504 25.19C16.9608 26.202 17.352 28.2708 17.1832 28.9172C16.9568 29.7844 16.0696 30.3044 15.2016 30.0772C14.3344 29.8508 13.8144 28.9636 14.0416 28.0956Z" fill="#88C5FF"/>
<path id="Vector_9" d="M21.3448 28.0956C21.5136 27.4492 22.8672 25.8364 23.5464 25.0572C23.7056 24.874 24.0048 24.9524 24.0536 25.19C24.264 26.202 24.6552 28.2708 24.4864 28.9172C24.26 29.7844 23.3728 30.3044 22.5048 30.0772C21.6376 29.8508 21.1176 28.9636 21.3448 28.0956Z" fill="#88C5FF"/>
<path id="Vector_10" d="M6.73739 28.0956C6.90619 27.4492 8.25979 25.8364 8.93899 25.0572C9.09819 24.874 9.39739 24.9524 9.44619 25.19C9.65659 26.202 10.0478 28.2708 9.87899 28.9172C9.65259 29.7844 8.76539 30.3044 7.89739 30.0772C7.03019 29.8508 6.51019 28.9636 6.73739 28.0956Z" fill="#88C5FF"/>
</g>
<defs>
<clipPath id="clip0_2431_16306">
<rect width="32" height="32" fill="white"/>
</clipPath>
</defs>
</svg>
