<svg width="32" height="32" viewBox="0 0 32 32" fill="none" xmlns="http://www.w3.org/2000/svg">
<g id="&#226;&#155;&#136;&#239;&#184;&#143;">
<path id="Vector" d="M11.393 26.5426C11.577 25.8402 13.0474 24.0882 13.785 23.241C13.9586 23.0418 14.2826 23.1266 14.3362 23.385C14.565 24.4842 14.9898 26.7322 14.8058 27.4346C14.5594 28.377 13.5954 28.9418 12.653 28.6954C11.7106 28.449 11.1458 27.485 11.3922 26.5426H11.393Z" fill="#88C5FF"/>
<path id="Vector_2" d="M5.73677 26.5426C5.92077 25.8402 7.39118 24.0882 8.12878 23.241C8.30238 23.0418 8.62638 23.1266 8.67998 23.385C8.90878 24.4842 9.33358 26.7322 9.14957 27.4346C8.90318 28.377 7.93918 28.9418 6.99678 28.6954C6.05438 28.449 5.49037 27.485 5.73677 26.5426Z" fill="#88C5FF"/>
<g id="Group">
<path id="Vector_3" d="M24.3441 21.6213H7.48486V12.8877L24.1201 14.0093L24.3441 21.6213Z" fill="#E5E8EB"/>
<path id="Vector_4" d="M18.1863 16.3658C22.0333 16.3658 25.1519 13.2472 25.1519 9.40017C25.1519 5.55318 22.0333 2.43457 18.1863 2.43457C14.3393 2.43457 11.2207 5.55318 11.2207 9.40017C11.2207 13.2472 14.3393 16.3658 18.1863 16.3658Z" fill="#E5E8EB"/>
<path id="Vector_5" d="M24.0927 21.623C27.3552 21.623 29.9999 18.9782 29.9999 15.7158C29.9999 12.4533 27.3552 9.80859 24.0927 9.80859C20.8303 9.80859 18.1855 12.4533 18.1855 15.7158C18.1855 18.9782 20.8303 21.623 24.0927 21.623Z" fill="#E5E8EB"/>
<path id="Vector_6" d="M7.4848 21.6229C10.514 21.6229 12.9696 19.1673 12.9696 16.1381C12.9696 13.1089 10.514 10.6533 7.4848 10.6533C4.45563 10.6533 2 13.1089 2 16.1381C2 19.1673 4.45563 21.6229 7.4848 21.6229Z" fill="#E5E8EB"/>
<path id="Vector_7" d="M11.2206 14.8991C13.7001 14.8991 15.7102 12.8891 15.7102 10.4095C15.7102 7.92998 13.7001 5.91992 11.2206 5.91992C8.74102 5.91992 6.73096 7.92998 6.73096 10.4095C6.73096 12.8891 8.74102 14.8991 11.2206 14.8991Z" fill="#E5E8EB"/>
</g>
<path id="Vector_8" fill-rule="evenodd" clip-rule="evenodd" d="M24.8942 23.4692H22.551L23.207 19.8988C23.3142 19.314 22.5742 18.9692 22.1958 19.4276L17.4998 25.1156C17.1894 25.4916 17.4566 26.0588 17.9446 26.0588H20.2878L19.6318 29.6292C19.5246 30.214 20.2646 30.5588 20.643 30.1004L25.339 24.4124C25.6494 24.0364 25.3822 23.4692 24.8942 23.4692Z" fill="#FFCD00"/>
</g>
</svg>
