<svg width="16" height="16" viewBox="0 0 16 16" fill="none" xmlns="http://www.w3.org/2000/svg">
<g id="icon-arrow-right-small-mono">
<path id="Vector" fill-rule="evenodd" clip-rule="evenodd" d="M5.74987 13.4001C5.51987 13.4001 5.28987 13.3101 5.10987 13.1401C4.94194 12.9715 4.84766 12.7431 4.84766 12.5051C4.84766 12.2671 4.94194 12.0388 5.10987 11.8701L8.97987 8.00012L5.10987 4.14012C4.94194 3.97145 4.84766 3.74313 4.84766 3.50512C4.84766 3.26711 4.94194 3.03879 5.10987 2.87012C5.27854 2.70219 5.50686 2.60791 5.74487 2.60791C5.98288 2.60791 6.2112 2.70219 6.37987 2.87012L10.8799 7.37012C11.0478 7.53879 11.1421 7.76711 11.1421 8.00512C11.1421 8.24313 11.0478 8.47145 10.8799 8.64012L6.37987 13.1401C6.20987 13.3101 5.97987 13.4001 5.74987 13.4001Z" fill="#ADB1BA"/>
</g>
</svg>
