<svg width="20" height="20" viewBox="0 0 20 20" fill="none" xmlns="http://www.w3.org/2000/svg">
<path d="M16.9329 3.34082H3.06689C1.96239 3.34082 1.06689 4.23632 1.06689 5.34082V14.5448C1.06689 15.0973 1.51439 15.5448 2.06689 15.5448H17.9334C18.4859 15.5448 18.9334 15.0973 18.9334 14.5448V5.34082C18.9334 4.23632 18.0374 3.34082 16.9329 3.34082Z" fill="#FFB72D"/>
<path d="M18.9329 11.7329H1.06689V14.5449C1.06689 15.0974 1.51439 15.5449 2.06689 15.5449H17.9334C18.4859 15.5449 18.9334 15.0974 18.9334 14.5449L18.9329 11.7329Z" fill="#FF8F00"/>
<path d="M4.18584 17.5387C5.36635 17.5387 6.32334 16.5817 6.32334 15.4012C6.32334 14.2207 5.36635 13.2637 4.18584 13.2637C3.00533 13.2637 2.04834 14.2207 2.04834 15.4012C2.04834 16.5817 3.00533 17.5387 4.18584 17.5387Z" fill="#313D4C"/>
<path d="M4.18605 16.2564C4.65826 16.2564 5.04105 15.8736 5.04105 15.4014C5.04105 14.9292 4.65826 14.5464 4.18605 14.5464C3.71385 14.5464 3.33105 14.9292 3.33105 15.4014C3.33105 15.8736 3.71385 16.2564 4.18605 16.2564Z" fill="#6B7683"/>
<path d="M15.6194 17.5387C16.7999 17.5387 17.7569 16.5817 17.7569 15.4012C17.7569 14.2207 16.7999 13.2637 15.6194 13.2637C14.4389 13.2637 13.4819 14.2207 13.4819 15.4012C13.4819 16.5817 14.4389 17.5387 15.6194 17.5387Z" fill="#313D4C"/>
<path d="M15.6196 16.2564C16.0919 16.2564 16.4746 15.8736 16.4746 15.4014C16.4746 14.9292 16.0919 14.5464 15.6196 14.5464C15.1474 14.5464 14.7646 14.9292 14.7646 15.4014C14.7646 15.8736 15.1474 16.2564 15.6196 16.2564Z" fill="#6B7683"/>
<path d="M18.9329 13.8521C18.6049 13.8521 18.3389 13.5861 18.3389 13.2581C18.3389 12.9301 18.6049 12.6641 18.9329 12.6641V13.8516V13.8521Z" fill="white"/>
<path d="M3.08659 5.26611H8.93209V9.42111H3.08659C2.77209 9.42111 2.51709 9.16611 2.51709 8.85161V5.83611C2.51709 5.52161 2.77209 5.26661 3.08659 5.26661V5.26611Z" fill="#313D4C"/>
<path d="M9.63818 5.26612H15.4837C15.7982 5.26612 16.0532 5.52112 16.0532 5.83562V8.85112C16.0532 9.16562 15.7982 9.42062 15.4837 9.42062H9.63818V5.26612Z" fill="#313D4C"/>
<path d="M17.6569 5.26611H18.9329V10.9211H17.6569C17.3424 10.9211 17.0874 10.6661 17.0874 10.3516V5.83611C17.0874 5.52161 17.3424 5.26661 17.6569 5.26661V5.26611Z" fill="#313D4C"/>
</svg>
