<svg width="20" height="20" viewBox="0 0 24 24" fill="none" xmlns="http://www.w3.org/2000/svg">
<path fill-rule="evenodd" clip-rule="evenodd" d="M10.904 21.527C11.57 21.967 12.429 21.967 13.094 21.527C15.209 20.131 19.814 16.794 21.798 13.06C24.413 8.134 21.342 3.221 17.282 3.221C14.968 3.221 13.576 4.43 12.806 5.469C12.7135 5.59625 12.5922 5.69982 12.4521 5.77122C12.3119 5.84263 12.1568 5.87985 11.9995 5.87985C11.8422 5.87985 11.6871 5.84263 11.5469 5.77122C11.4068 5.69982 11.2855 5.59625 11.193 5.469C10.423 4.43 9.031 3.221 6.717 3.221C2.657 3.221 -0.414 8.134 2.202 13.06C4.184 16.794 8.791 20.131 10.904 21.527Z" />
</svg>
