<svg width="20" height="20" viewBox="0 0 20 20" fill="none" xmlns="http://www.w3.org/2000/svg">
<path d="M12.616 6.59278C12.725 6.57079 12.8375 6.55879 12.953 6.55879C13.36 6.55879 13.7285 6.70929 14.0195 6.94979C14.3105 6.70929 14.679 6.55879 15.086 6.55879C15.281 6.55879 15.4655 6.59879 15.64 6.65979C15.2425 4.84979 13.9145 3.39179 12.182 2.80829C11.654 2.63029 11.09 2.52979 10.502 2.52979C8.94348 2.52979 7.54748 3.21129 6.58398 4.28729C7.15598 4.02779 7.78898 3.87929 8.45798 3.87929C10.316 3.87929 11.9115 4.99578 12.616 6.59278Z" fill="#64A7FF"/>
<path d="M4.08022 7.72838C4.10022 7.68338 4.12222 7.63988 4.14422 7.59538C4.20272 7.47688 4.26722 7.36138 4.33922 7.25138C4.35822 7.22238 4.37722 7.19438 4.39672 7.16588C4.47522 7.05338 4.56222 6.94688 4.65372 6.84488C4.67972 6.81638 4.70472 6.78738 4.73122 6.75938C4.83422 6.65238 4.94472 6.55238 5.06122 6.46038C5.08772 6.43938 5.11522 6.41988 5.14222 6.39988C5.26772 6.30638 5.39822 6.21838 5.53622 6.14338C5.53872 6.14188 5.54172 6.14088 5.54422 6.13938C5.68422 6.06388 5.83172 6.00138 5.98272 5.94588C6.01122 5.93538 6.03922 5.92438 6.06772 5.91488C6.21672 5.86488 6.37022 5.82538 6.52822 5.79688C6.55822 5.79138 6.58922 5.78738 6.61972 5.78288C6.78522 5.75738 6.95322 5.74038 7.12522 5.74038H7.12622C8.17322 5.74038 9.10622 6.22488 9.71622 6.98038C10.0122 6.72138 10.3952 6.55938 10.8192 6.55938C11.2262 6.55938 11.5947 6.70988 11.8857 6.95038C12.0942 6.77788 12.3402 6.64938 12.6157 6.59338C11.9112 4.99588 10.3162 3.87988 8.45822 3.87988C7.78922 3.87988 7.15622 4.02788 6.58422 4.28788C5.09172 4.96538 4.03372 6.42388 3.92822 8.14288C3.93022 8.13588 3.93372 8.12938 3.93572 8.12188C3.97572 7.98688 4.02422 7.85588 4.08022 7.72888V7.72838Z" fill="#93C9FF"/>
<path d="M15.6401 6.6599C15.8296 6.7264 16.0011 6.8249 16.1526 6.9499C16.4436 6.7094 16.8121 6.5589 17.2191 6.5589C17.4131 6.5589 17.5966 6.5984 17.7701 6.6589C17.0291 4.4159 14.9196 2.7959 12.4286 2.7959C12.3456 2.7959 12.2646 2.8049 12.1821 2.8084C13.9146 3.3919 15.2426 4.8499 15.6401 6.6599Z" fill="#2F81F9"/>
<path d="M16.465 17.2149C15.885 17.4199 15.59 17.7649 14.59 17.7649C13.175 17.7649 13.175 17.0749 11.76 17.0749C10.345 17.0749 10.345 17.7649 8.93004 17.7649C7.51504 17.7649 7.51504 17.0749 6.10504 17.0749C4.69504 17.0749 4.69004 17.7649 3.28004 17.7649C2.22004 17.7649 1.95504 17.3749 1.29004 17.1799C0.950042 17.0799 0.845042 16.6599 1.06004 16.3799C2.74504 14.1999 3.19504 11.0749 3.84504 8.52988C3.86504 8.40988 3.89004 8.28988 3.92504 8.16988C4.53004 7.38488 5.48504 6.87988 6.55504 6.87988C8.10504 6.87988 8.89504 8.20988 9.35004 9.06988C9.42004 9.19988 9.49504 9.29488 9.57004 9.36488C9.78004 9.59488 10.05 9.76488 10.36 9.85488C10.505 9.89488 10.66 9.92488 10.82 9.92488C11.225 9.92488 11.595 9.77488 11.885 9.53488C12.175 9.77488 12.545 9.92488 12.955 9.92488C13.36 9.92488 13.73 9.77488 14.02 9.53488C14.16 9.64988 14.315 9.74488 14.49 9.81488C14.11 11.5049 14.95 13.6899 15.92 15.3999C16.14 15.7899 16.425 16.1349 16.68 16.4049C16.93 16.6699 16.81 17.0999 16.465 17.2149Z" fill="#2F81F9"/>
<path d="M6.55556 6.88123C8.10556 6.88123 8.89606 8.21123 9.35206 9.06923C9.42156 9.19973 9.49556 9.29323 9.57056 9.36323C9.30306 9.06523 9.13556 8.67523 9.13556 8.24323C9.13556 7.73773 9.36306 7.28923 9.71606 6.98023C9.10606 6.22423 8.17306 5.74023 7.12606 5.74023H7.12506C6.95306 5.74023 6.78456 5.75723 6.61956 5.78273C6.58906 5.78773 6.55856 5.79123 6.52806 5.79673C6.37056 5.82523 6.21656 5.86473 6.06756 5.91473C6.03856 5.92423 6.01106 5.93523 5.98256 5.94573C5.83156 6.00123 5.68406 6.06373 5.54406 6.13923C5.54156 6.14073 5.53856 6.14173 5.53606 6.14323C5.39756 6.21823 5.26756 6.30623 5.14206 6.39973C5.11506 6.41973 5.08756 6.43923 5.06106 6.46023C4.94456 6.55273 4.83456 6.65273 4.73106 6.75923C4.70406 6.78673 4.67906 6.81623 4.65356 6.84473C4.56156 6.94673 4.47506 7.05323 4.39656 7.16573C4.37706 7.19373 4.35806 7.22223 4.33906 7.25123C4.26706 7.36123 4.20306 7.47673 4.14406 7.59523C4.12206 7.63923 4.10006 7.68323 4.08006 7.72823C4.02406 7.85523 3.97556 7.98623 3.93556 8.12123C3.93356 8.12823 3.93006 8.13473 3.92806 8.14223C3.92406 8.15573 3.91756 8.16773 3.91406 8.18123C3.91706 8.17723 3.92056 8.17423 3.92356 8.17023C4.53256 7.38723 5.48706 6.88123 6.55556 6.88123Z" fill="#104BE0"/>
<path d="M18.9048 8.24506C18.9048 9.17506 18.1498 9.92506 17.2198 9.92506C16.8098 9.92506 16.4448 9.77506 16.1548 9.53506C15.8598 9.77506 15.4948 9.92506 15.0848 9.92506C14.8748 9.92506 14.6748 9.88506 14.4898 9.81506C14.3148 9.74506 14.1598 9.65006 14.0198 9.53506C13.7298 9.77506 13.3598 9.92506 12.9548 9.92506C12.5448 9.92506 12.1748 9.77506 11.8848 9.53506C11.5948 9.77506 11.2248 9.92506 10.8198 9.92506C10.6598 9.92506 10.5048 9.89506 10.3598 9.85506C10.0498 9.76506 9.77977 9.59506 9.56977 9.36506C9.30477 9.06506 9.13477 8.67506 9.13477 8.24506C9.13477 7.73506 9.36477 7.29006 9.71477 6.98006C10.0098 6.72006 10.3948 6.56006 10.8198 6.56006C11.2248 6.56006 11.5948 6.71006 11.8848 6.95006C12.0948 6.78006 12.3398 6.65006 12.6148 6.59506C12.7248 6.57006 12.8348 6.56006 12.9548 6.56006C13.3598 6.56006 13.7298 6.71006 14.0198 6.95006C14.3098 6.71006 14.6798 6.56006 15.0848 6.56006C15.2798 6.56006 15.4648 6.60006 15.6398 6.66006C15.8298 6.72506 15.9998 6.82506 16.1548 6.95006C16.4448 6.71006 16.8098 6.56006 17.2198 6.56006C17.4148 6.56006 17.5948 6.60006 17.7698 6.66006C18.4298 6.89006 18.9048 7.50506 18.9048 8.24506Z" fill="#E4EBF7"/>
</svg>
