<svg width="13" height="12" viewBox="0 0 13 12" fill="none" xmlns="http://www.w3.org/2000/svg">
<g id="&#226;&#155;&#179;&#239;&#184;&#143;" clip-path="url(#clip0_960_10965)">
<path id="Vector" d="M6.2501 11.2278C9.23244 11.2278 11.6501 9.8274 11.6501 8.09997C11.6501 6.37253 9.23244 4.97217 6.2501 4.97217C3.26776 4.97217 0.850098 6.37253 0.850098 8.09997C0.850098 9.8274 3.26776 11.2278 6.2501 11.2278Z" fill="#68C76F"/>
<path id="Vector_2" d="M6.25 7.41338C6.83222 7.41338 7.3042 7.14005 7.3042 6.80288C7.3042 6.46571 6.83222 6.19238 6.25 6.19238C5.66778 6.19238 5.1958 6.46571 5.1958 6.80288C5.1958 7.14005 5.66778 7.41338 6.25 7.41338Z" fill="#333D4B"/>
<path id="Vector_3" d="M8.64809 1.93301L6.43799 0.997314V3.42101L8.64809 2.48531C8.89229 2.38211 8.89229 2.03651 8.64809 1.93301Z" fill="#EF4452"/>
<path id="Vector_4" d="M6.2499 6.42787C6.1257 6.42787 6.0249 6.32707 6.0249 6.20287V1.10317C6.0249 0.978974 6.1257 0.878174 6.2499 0.878174C6.3741 0.878174 6.4749 0.978974 6.4749 1.10317V6.20317C6.4749 6.32737 6.3741 6.42787 6.2499 6.42787Z" fill="#333D4B"/>
</g>
<defs>
<clipPath id="clip0_960_10965">
<rect width="12" height="12" fill="white" transform="translate(0.25)"/>
</clipPath>
</defs>
</svg>
