<svg width="100%" height="current" viewBox="0 0 25 24" fill="current" xmlns="http://www.w3.org/2000/svg">
<g clip-path="url(#clip0_2009_25628)">
<path fill-rule="evenodd" clip-rule="evenodd" d="M22.214 13.0889L8.546 21.9939C8.39509 22.0923 8.22041 22.148 8.04042 22.1553C7.86044 22.1626 7.68183 22.1211 7.52346 22.0353C7.3651 21.9494 7.23286 21.8224 7.14072 21.6676C7.04858 21.5128 6.99996 21.3361 7 21.1559V3.34592C6.99996 3.16578 7.04858 2.98899 7.14072 2.8342C7.23286 2.67941 7.3651 2.55239 7.52346 2.46655C7.68183 2.38071 7.86044 2.33924 8.04042 2.34652C8.22041 2.3538 8.39509 2.40957 8.546 2.50792L22.214 11.4129C22.3535 11.5037 22.4681 11.628 22.5474 11.7743C22.6268 11.9206 22.6683 12.0845 22.6683 12.2509C22.6683 12.4174 22.6268 12.5812 22.5474 12.7275C22.4681 12.8739 22.3535 12.9981 22.214 13.0889Z" fill="current"/>
</g>
<defs>
<clipPath id="clip0_2009_25628">
<rect width="100%" height="100%" fill="current" transform="translate(0.5)"/>
</clipPath>
</defs>
</svg>
