<svg width="14" height="14" viewBox="0 0 14 14" fill="none" xmlns="http://www.w3.org/2000/svg">
<g id="Vector">
<path id="Vector_2" d="M7 5.72705V8.43796H10.7673C10.6018 9.30978 10.1054 10.048 9.36088 10.5443L11.6327 12.3071C12.9563 11.0853 13.72 9.29075 13.72 7.15894C13.72 6.66258 13.6754 6.18527 13.5927 5.72713L7 5.72705Z" fill="#4285F4"/>
<path id="Vector_3" d="M3.07702 8.33252L2.56464 8.72474L0.750977 10.1374C1.90279 12.422 4.26353 14.0002 6.99987 14.0002C8.88982 14.0002 10.4743 13.3765 11.6326 12.3075L9.36075 10.5447C8.73711 10.9647 7.94165 11.2193 6.99987 11.2193C5.17988 11.2193 3.63356 9.99112 3.07988 8.33656L3.07702 8.33252Z" fill="#34A853"/>
<path id="Vector_4" d="M0.750854 3.86279C0.273608 4.80457 0 5.86731 0 7.00002C0 8.13273 0.273608 9.19548 0.750854 10.1373C0.750854 10.1436 3.07999 8.32998 3.07999 8.32998C2.93999 7.90998 2.85724 7.46456 2.85724 6.99995C2.85724 6.53534 2.93999 6.08992 3.07999 5.66992L0.750854 3.86279Z" fill="#FBBC05"/>
<path id="Vector_5" d="M7.00001 2.78727C8.03093 2.78727 8.94728 3.14362 9.6791 3.83091L11.6836 1.82639C10.4682 0.69368 8.89004 0 7.00001 0C4.26367 0 1.90279 1.57182 0.750977 3.86273L3.08004 5.67001C3.63364 4.01544 5.18002 2.78727 7.00001 2.78727Z" fill="#EA4335"/>
</g>
</svg>
