<svg width="18" height="19" viewBox="0 0 18 19" fill="none" xmlns="http://www.w3.org/2000/svg">
<g id="&#240;&#159;&#147;&#145;" clip-path="url(#clip0_932_11823)">
<g id="Group">
<g id="Group_2">
<path id="Vector" fill-rule="evenodd" clip-rule="evenodd" d="M1.96924 2.9662V16.0342C1.96924 16.5265 2.36794 16.9252 2.86024 16.9252H10.1367L14.5917 12.4702V2.9662C14.5917 2.4739 14.193 2.0752 13.7007 2.0752H2.86024C2.36794 2.0752 1.96924 2.4739 1.96924 2.9662Z" fill="#E5E9EE"/>
<path id="Vector_2" fill-rule="evenodd" clip-rule="evenodd" d="M11.0277 12.4702H14.5917L10.1367 16.9252V13.3612C10.1367 12.8689 10.5354 12.4702 11.0277 12.4702Z" fill="#C0C7D1"/>
</g>
<g id="Group_3">
<path id="Vector_3" d="M14.5913 4.5249H1.96875V4.96185H14.5913V4.5249Z" fill="#D0D5DA"/>
<path id="Vector_4" d="M14.5913 6.58838H1.96875V7.02533H14.5913V6.58838Z" fill="#D0D5DA"/>
<path id="Vector_5" d="M14.5913 8.65234H1.96875V9.08929H14.5913V8.65234Z" fill="#D0D5DA"/>
<path id="Vector_6" d="M14.5913 10.7158H1.96875V11.1528H14.5913V10.7158Z" fill="#D0D5DA"/>
</g>
<path id="Vector_7" d="M14.5918 3.39355H15.5944C15.8356 3.39355 16.0313 3.5893 16.0313 3.8305V6.1471C16.0313 6.3883 15.8356 6.58405 15.5944 6.58405H14.5918V3.394V3.39355Z" fill="#4592FB"/>
<path id="Vector_8" d="M15.5944 11.0836H14.5918V7.89355H15.5944C15.8356 7.89355 16.0313 8.0893 16.0313 8.3305V10.6471C16.0313 10.8883 15.8356 11.0841 15.5944 11.0841V11.0836Z" fill="#FFC100"/>
</g>
</g>
<defs>
<clipPath id="clip0_932_11823">
<rect width="18" height="18" fill="white" transform="translate(0 0.5)"/>
</clipPath>
</defs>
</svg>
