<svg width="32" height="32" viewBox="0 0 32 32" fill="none" xmlns="http://www.w3.org/2000/svg">
<g id="&#240;&#159;&#140;&#167;&#239;&#184;&#143;" clip-path="url(#clip0_2431_16294)">
<path id="Vector" d="M13.2882 26.6319C13.437 26.0631 14.6282 24.6439 15.2258 23.9575C15.3658 23.7959 15.629 23.8647 15.6722 24.0743C15.857 24.9647 16.2018 26.7855 16.053 27.3551C15.853 28.1183 15.073 28.5759 14.309 28.3759C13.5458 28.1759 13.0882 27.3959 13.2882 26.6319Z" fill="#88C5FF"/>
<path id="Vector_2" d="M19.7159 26.6319C19.8647 26.0631 21.0559 24.6439 21.6535 23.9575C21.7935 23.7959 22.0567 23.8647 22.0999 24.0743C22.2847 24.9647 22.6295 26.7855 22.4807 27.3551C22.2807 28.1183 21.5007 28.5759 20.7367 28.3759C19.9735 28.1759 19.5159 27.3959 19.7159 26.6319Z" fill="#88C5FF"/>
<path id="Vector_3" d="M6.85993 26.6319C7.00873 26.0631 8.19993 24.6439 8.79753 23.9575C8.93753 23.7959 9.20073 23.8647 9.24393 24.0743C9.42873 24.9647 9.77353 26.7855 9.62473 27.3551C9.42473 28.1183 8.64473 28.5759 7.88073 28.3759C7.11753 28.1759 6.65993 27.3959 6.85993 26.6319Z" fill="#88C5FF"/>
<g id="Group">
<path id="Vector_4" d="M24.3441 21.8252H7.48486V13.0908L24.1201 14.2132L24.3441 21.8252Z" fill="#E5E8EB"/>
<path id="Vector_5" d="M18.1863 16.5689C22.0333 16.5689 25.1519 13.4503 25.1519 9.6033C25.1519 5.7563 22.0333 2.6377 18.1863 2.6377C14.3393 2.6377 11.2207 5.7563 11.2207 9.6033C11.2207 13.4503 14.3393 16.5689 18.1863 16.5689Z" fill="#E5E8EB"/>
<path id="Vector_6" d="M24.0927 21.8261C27.3552 21.8261 29.9999 19.1814 29.9999 15.9189C29.9999 12.6565 27.3552 10.0117 24.0927 10.0117C20.8303 10.0117 18.1855 12.6565 18.1855 15.9189C18.1855 19.1814 20.8303 21.8261 24.0927 21.8261Z" fill="#E5E8EB"/>
<path id="Vector_7" d="M7.4848 21.826C10.514 21.826 12.9696 19.3704 12.9696 16.3412C12.9696 13.3121 10.514 10.8564 7.4848 10.8564C4.45563 10.8564 2 13.3121 2 16.3412C2 19.3704 4.45563 21.826 7.4848 21.826Z" fill="#E5E8EB"/>
<path id="Vector_8" d="M11.2206 15.1022C13.7001 15.1022 15.7102 13.0922 15.7102 10.6126C15.7102 8.13311 13.7001 6.12305 11.2206 6.12305C8.74102 6.12305 6.73096 8.13311 6.73096 10.6126C6.73096 13.0922 8.74102 15.1022 11.2206 15.1022Z" fill="#E5E8EB"/>
</g>
</g>
<defs>
<clipPath id="clip0_2431_16294">
<rect width="32" height="32" fill="white"/>
</clipPath>
</defs>
</svg>
