<svg width="24" height="24" viewBox="0 0 24 24" fill="none" xmlns="http://www.w3.org/2000/svg">
<path fill-rule="evenodd" clip-rule="evenodd" d="M20.318 10.8H13.318V3.8C13.318 3.48174 13.1916 3.17651 12.9665 2.95147C12.7415 2.72643 12.4363 2.6 12.118 2.6C11.7997 2.6 11.4945 2.72643 11.2695 2.95147C11.0444 3.17651 10.918 3.48174 10.918 3.8V10.8H3.918C3.59974 10.8 3.29451 10.9264 3.06947 11.1515C2.84443 11.3765 2.718 11.6817 2.718 12C2.718 12.3183 2.84443 12.6235 3.06947 12.8485C3.29451 13.0736 3.59974 13.2 3.918 13.2H10.918V20.2C10.918 20.5183 11.0444 20.8235 11.2695 21.0485C11.4945 21.2736 11.7997 21.4 12.118 21.4C12.4363 21.4 12.7415 21.2736 12.9665 21.0485C13.1916 20.8235 13.318 20.5183 13.318 20.2V13.2H20.318C20.6363 13.2 20.9415 13.0736 21.1665 12.8485C21.3916 12.6235 21.518 12.3183 21.518 12C21.518 11.6817 21.3916 11.3765 21.1665 11.1515C20.9415 10.9264 20.6363 10.8 20.318 10.8Z" fill="#ADB1BA"/>
</svg>
