<svg width="164" height="38" viewBox="0 0 164 38" fill="none" xmlns="http://www.w3.org/2000/svg">
<path d="M159.744 9C161.76 9 163.232 10.472 163.232 12.488C163.232 14.504 161.76 15.976 159.744 15.976C157.728 15.976 156.256 14.504 156.256 12.488C156.256 10.472 157.728 9 159.744 9ZM162.592 18.056V36.872H156.896V18.056H162.592Z" fill="#212124"/>
<path d="M142.485 37.2562C137.109 37.2562 133.365 33.1282 133.365 27.4322C133.365 21.7362 137.109 17.6082 142.485 17.6082C144.949 17.6082 146.741 18.4722 147.861 19.9762V9.92822H153.557V36.8082H147.861V34.8882C146.741 36.3922 144.949 37.2562 142.485 37.2562ZM143.381 32.3922C146.165 32.3922 147.957 30.3122 147.957 27.4322C147.957 24.5522 146.165 22.4722 143.381 22.4722C140.661 22.4722 138.933 24.5522 138.933 27.4322C138.933 30.3122 140.661 32.3922 143.381 32.3922Z" fill="#212124"/>
<path d="M113.16 36.8079V18.0559H118.856V19.9759C119.976 18.4719 121.704 17.6079 124.104 17.6079C128.456 17.6079 131.432 20.7759 131.432 25.9599V36.8079H125.736V26.9199C125.736 24.0719 124.584 22.5039 122.44 22.5039C120.2 22.5039 118.856 24.2639 118.856 27.1759V36.8079H113.16Z" fill="#212124"/>
<path d="M98.7484 37.2559C93.3724 37.2559 89.6284 33.1279 89.6284 27.4319C89.6284 21.7359 93.3724 17.6079 98.7484 17.6079C101.212 17.6079 103.004 18.4719 104.124 19.9759V18.0559H109.82V36.8079H104.124V34.8879C103.004 36.3919 101.212 37.2559 98.7484 37.2559ZM99.6444 32.3919C102.428 32.3919 104.22 30.3119 104.22 27.4319C104.22 24.5519 102.428 22.4719 99.6444 22.4719C96.9244 22.4719 95.1964 24.5519 95.1964 27.4319C95.1964 30.3119 96.9244 32.3919 99.6444 32.3919Z" fill="#212124"/>
<path d="M59.8335 36.808V10.728H64.4735L73.4655 25.32L82.4575 10.728H87.0975V36.808H81.2735V22.504L75.2255 32.52H71.7055L65.6575 22.504V36.808H59.8335Z" fill="#212124"/>
<path d="M19.8755 3.22998L39.751 36.7698H0L19.8755 3.22998Z" fill="#00B288"/>
<path d="M35.9003 17.6396L47.4529 36.7698H24.3477L35.9003 17.6396Z" fill="#00B288"/>
<path d="M14.2855 12.9189L28.571 36.7695H0L14.2855 12.9189Z" fill="#00B288"/>
<path d="M28.5709 36.7698L14.1611 12.795L15.1549 9.68213L31.3793 36.7698H28.5709Z" fill="white"/>
<path d="M33.4634 4.2876L43.9032 5.55349L43.6772 7.41774L33.2373 6.15185L33.4634 4.2876Z" fill="#00B288"/>
<path d="M40.1353 0.746094L38.8694 11.1859L37.0051 10.9599L38.271 0.520042L40.1353 0.746094Z" fill="#00B288"/>
<path d="M43.2881 3.34863L35.0109 9.83559L33.8525 8.35752L42.1297 1.87056L43.2881 3.34863Z" fill="#00B288"/>
<path d="M41.0747 10.5708L34.5877 2.29361L36.0658 1.13522L42.5528 9.41242L41.0747 10.5708Z" fill="#00B288"/>
</svg>
