<svg width="16" height="16" viewBox="0 0 16 16" fill="none" xmlns="http://www.w3.org/2000/svg">
<g id="&#240;&#159;&#140;&#178;" clip-path="url(#clip0_932_12921)">
<g id="Group">
<path id="Vector" d="M8.38928 3.70923H7.61088C7.39593 3.70923 7.22168 3.88348 7.22168 4.09843V14.9376C7.22168 15.1526 7.39593 15.3268 7.61088 15.3268H8.38928C8.60423 15.3268 8.77848 15.1526 8.77848 14.9376V4.09843C8.77848 3.88348 8.60423 3.70923 8.38928 3.70923Z" fill="#86584A"/>
<g id="Group_2">
<path id="Vector_2" d="M7.41681 5.45318L2.36481 11.7536C1.97281 12.2428 2.32081 12.968 2.94761 12.968H13.0516C13.6784 12.968 14.0264 12.2428 13.6344 11.7536L8.58241 5.45318C8.28321 5.08038 7.71601 5.08038 7.41681 5.45318Z" fill="#0A9F60"/>
<path id="Vector_3" d="M7.54671 3.08079L3.35511 8.30799C3.05071 8.68799 3.32111 9.25119 3.80791 9.25119H12.1911C12.6779 9.25119 12.9483 8.68759 12.6439 8.30799L8.45231 3.08079C8.21991 2.79119 7.77911 2.79119 7.54671 3.08079Z" fill="#23B169"/>
<path id="Vector_4" d="M7.66316 1.0884L4.38076 5.182C4.15436 5.4644 4.35556 5.8832 4.71716 5.8832H11.282C11.644 5.8832 11.8448 5.4644 11.6184 5.182L8.33596 1.0884C8.16316 0.873202 7.83556 0.873202 7.66316 1.0884Z" fill="#68C76F"/>
</g>
</g>
</g>
<defs>
<clipPath id="clip0_932_12921">
<rect width="16" height="16" fill="white"/>
</clipPath>
</defs>
</svg>
