<svg width="10" height="10" viewBox="0 0 10 10" fill="none" xmlns="http://www.w3.org/2000/svg">
<g id="icon-x">
<path id="Vector" fill-rule="evenodd" clip-rule="evenodd" d="M5.75625 4.99997L8.11084 2.64538C8.15729 2.59896 8.19415 2.54383 8.2193 2.48316C8.24445 2.42249 8.25741 2.35746 8.25742 2.29178C8.25744 2.2261 8.24453 2.16107 8.21941 2.10038C8.19429 2.03969 8.15747 1.98455 8.11104 1.93809C8.06462 1.89164 8.00949 1.85478 7.94882 1.82963C7.88815 1.80448 7.82312 1.79152 7.75744 1.7915C7.69176 1.79148 7.62673 1.8044 7.56604 1.82952C7.50535 1.85463 7.45021 1.89146 7.40375 1.93788L5.04917 4.29288L2.69417 1.93788C2.59932 1.84929 2.47376 1.80102 2.34399 1.80325C2.21421 1.80548 2.09039 1.85804 1.99864 1.94985C1.90689 2.04165 1.8544 2.16551 1.85224 2.29528C1.85009 2.42505 1.89844 2.55059 1.98709 2.64538L4.34209 4.99997L1.98709 7.35455C1.91749 7.42463 1.87016 7.51373 1.85106 7.61064C1.83197 7.70755 1.84195 7.80794 1.87976 7.89918C1.91757 7.99043 1.98151 8.06846 2.06355 8.12347C2.14559 8.17847 2.24206 8.20798 2.34084 8.2083C2.46875 8.2083 2.59667 8.15955 2.69417 8.06205L5.04917 5.70705L7.40375 8.06205C7.45013 8.10858 7.50523 8.14549 7.56589 8.17068C7.62656 8.19587 7.69161 8.20883 7.75729 8.20883C7.82298 8.20883 7.88803 8.19587 7.94869 8.17068C8.00936 8.14549 8.06446 8.10858 8.11084 8.06205C8.15732 8.01561 8.1942 7.96047 8.21937 7.89977C8.24453 7.83907 8.25748 7.77401 8.25748 7.7083C8.25748 7.64259 8.24453 7.57753 8.21937 7.51683C8.1942 7.45613 8.15732 7.40099 8.11084 7.35455L5.75625 4.99997Z" fill="white"/>
</g>
</svg>
