<svg width="14" height="15" viewBox="0 0 14 15" fill="none" xmlns="http://www.w3.org/2000/svg">
<g id="icon-heart">
<path id="Vector" fill-rule="evenodd" clip-rule="evenodd" d="M6.36065 13.0574C6.74915 13.3141 7.25023 13.3141 7.63815 13.0574C8.8719 12.2431 11.5581 10.2965 12.7155 8.11832C14.2409 5.24482 12.4495 2.37891 10.0811 2.37891C8.73131 2.37891 7.91931 3.08416 7.47015 3.69024C7.4162 3.76447 7.34545 3.82488 7.26368 3.86654C7.18192 3.90819 7.09145 3.9299 6.99969 3.9299C6.90792 3.9299 6.81746 3.90819 6.73569 3.86654C6.65393 3.82488 6.58318 3.76447 6.52923 3.69024C6.08006 3.08416 5.26806 2.37891 3.91823 2.37891C1.5499 2.37891 -0.24152 5.24482 1.28448 8.11832C2.44065 10.2965 5.12806 12.2431 6.36065 13.0574Z"/>
</g>
</svg>
