<svg viewBox="0 0 14 14" fill="none" xmlns="http://www.w3.org/2000/svg">
<g id="icon-arrow-down-small-mono">
<path id="Vector" fill-rule="evenodd" clip-rule="evenodd" d="M2.27508 5.03126C2.27508 4.83001 2.35383 4.62876 2.50258 4.47126C2.65016 4.32432 2.84994 4.24182 3.0582 4.24182C3.26646 4.24182 3.46624 4.32432 3.61383 4.47126L7.00008 7.85751L10.3776 4.47126C10.5252 4.32432 10.7249 4.24182 10.9332 4.24182C11.1415 4.24182 11.3412 4.32432 11.4888 4.47126C11.6358 4.61884 11.7183 4.81862 11.7183 5.02688C11.7183 5.23514 11.6358 5.43492 11.4888 5.58251L7.55133 9.52001C7.40374 9.66694 7.20396 9.74944 6.9957 9.74944C6.78744 9.74944 6.58766 9.66694 6.44008 9.52001L2.50258 5.58251C2.35383 5.43376 2.27508 5.23251 2.27508 5.03126Z" fill="currentColor"/>
</g>
</svg>
