<svg width="16" height="16" viewBox="0 0 16 16" fill="none" xmlns="http://www.w3.org/2000/svg">
<g id="&#226;&#152;&#157;&#240;&#159;&#143;&#187;" clip-path="url(#clip0_932_12974)">
<g id="Group">
<path id="Vector" d="M12.0344 9.57599V6.89359H2.37598V9.57599C2.37598 12.682 4.89398 15.2 7.99998 15.2C11.106 15.2 13.624 12.682 13.624 9.57599H12.0344Z" fill="#FFCCA8"/>
<path id="Vector_2" d="M10.8239 0C10.1519 0 9.61191 0.556 9.61191 1.24V5.396C9.49591 4.832 9.00791 4.408 8.42391 4.408C7.75591 4.408 7.21191 4.964 7.21191 5.652V6.0516C7.21191 6.0576 7.21351 6.0628 7.21351 6.0688V8.1688C7.21351 8.1716 7.21271 8.174 7.21271 8.1768C7.21471 8.4788 7.32511 8.7516 7.50151 8.9656C7.72391 9.236 8.05271 9.4112 8.42391 9.4112C9.01191 9.4112 9.49991 8.9872 9.61191 8.4192V9.4032H12.0359V1.24C12.0359 0.556 11.4919 0 10.8239 0Z" fill="#FFCCA8"/>
<path id="Vector_3" d="M4.79668 8.23559C4.83108 8.89039 5.35468 9.41159 6.00188 9.41159C6.66828 9.41159 7.20868 8.85959 7.21268 8.17679C7.21268 8.17399 7.21348 8.17159 7.21348 8.16879V6.06879C7.21348 6.06279 7.21188 6.05759 7.21188 6.05159C7.20268 5.37359 6.66548 4.82599 6.00188 4.82599C5.33268 4.82599 4.79028 5.38239 4.79028 6.06839V6.75959C4.72468 6.13679 4.21628 5.65039 3.59148 5.65039C2.92228 5.65039 2.37988 6.20679 2.37988 6.89279V8.16919C2.37988 8.61039 2.60588 8.99559 2.94388 9.21599C3.13148 9.33839 3.35268 9.41159 3.59148 9.41159C4.23868 9.41159 4.76228 8.88999 4.79668 8.23559Z" fill="#FFCCA8"/>
<path id="Vector_4" d="M6.00234 9.41201C5.35514 9.41201 4.83154 8.89081 4.79714 8.23601C4.76274 8.89081 4.23914 9.41201 3.59194 9.41201C3.35314 9.41201 3.13194 9.33881 2.94434 9.21641C3.15314 9.62641 3.56634 9.90921 4.04874 9.90921C4.40074 9.90921 4.71714 9.75921 4.94434 9.51921C5.23514 9.75921 5.59994 9.90921 6.00274 9.90921C6.65794 9.90921 7.21994 9.52401 7.50234 8.96641C7.32594 8.75241 7.21594 8.47961 7.21354 8.17761C7.20914 8.86001 6.66914 9.41241 6.00274 9.41241L6.00234 9.41201Z" fill="#E68E51"/>
<path id="Vector_5" d="M10.1319 9.99401H9.02351C8.30991 9.99401 7.73151 9.41561 7.73151 8.70201C7.73151 7.98841 8.30991 7.41001 9.02351 7.41001H11.5351C11.6503 7.41001 11.7611 7.42601 11.8711 7.44401C11.5491 7.08641 11.0875 6.85681 10.5683 6.85681H8.92391V6.86681C7.95231 6.91961 7.17871 7.71681 7.17871 8.70201C7.17871 9.48001 7.66151 10.1424 8.34271 10.4136V11.4604C8.82471 10.852 9.43311 10.348 10.1319 9.99401Z" fill="#E68E51"/>
<path id="Vector_6" d="M11.8704 7.444C11.7604 7.426 11.6496 7.41 11.5344 7.41H9.02279C8.30919 7.41 7.73079 7.9884 7.73079 8.702C7.73079 9.4156 8.30919 9.994 9.02279 9.994H10.1312C9.43239 10.3484 8.82359 10.852 8.34159 11.4604C7.61799 12.374 7.18359 13.526 7.18359 14.782H9.20719L12.554 11.1404V9.994H13.25C13.4564 9.994 13.6236 9.8268 13.6236 9.6204V9.4992C13.6236 8.4604 12.8636 7.6056 11.8704 7.444Z" fill="#FFCCA8"/>
</g>
</g>
<defs>
<clipPath id="clip0_932_12974">
<rect width="16" height="16" fill="white"/>
</clipPath>
</defs>
</svg>
