<svg width="32" height="32" viewBox="0 0 32 32" fill="none" xmlns="http://www.w3.org/2000/svg">
<g id="&#240;&#159;&#140;&#171;&#239;&#184;&#143;" clip-path="url(#clip0_2431_16343)">
<g id="Group">
<path id="Vector" d="M24.5679 7.90465C23.3751 7.90465 22.7255 7.58705 22.2047 7.33105C21.7551 7.11185 21.4303 6.95185 20.6791 6.95185C19.9279 6.95185 19.6039 7.11025 19.1559 7.33105C18.6343 7.58625 17.9855 7.90465 16.7927 7.90465C15.5999 7.90465 14.9527 7.58705 14.4319 7.33105C13.9831 7.11105 13.6599 6.95185 12.9103 6.95185C12.1607 6.95185 11.8367 7.11025 11.3887 7.33105C10.8679 7.58625 10.2191 7.90465 9.02789 7.90465C7.83669 7.90465 7.18709 7.58705 6.66629 7.33105C6.21749 7.11105 5.89349 6.95185 5.14389 6.95185C4.61829 6.95185 4.19189 6.52545 4.19189 5.99985C4.19189 5.47425 4.61829 5.04785 5.14389 5.04785C6.33589 5.04785 6.98469 5.36545 7.50549 5.62145C7.95429 5.84145 8.27829 6.00065 9.02789 6.00065C9.77749 6.00065 10.1015 5.84225 10.5495 5.62145C11.0703 5.36625 11.7191 5.04785 12.9103 5.04785C14.1015 5.04785 14.7503 5.36545 15.2711 5.62145C15.7199 5.84145 16.0431 6.00065 16.7927 6.00065C17.5423 6.00065 17.8687 5.84145 18.3175 5.62145C18.8383 5.36625 19.4871 5.04785 20.6791 5.04785C21.8711 5.04785 22.5215 5.36545 23.0423 5.62145C23.4919 5.84065 23.8167 6.00065 24.5679 6.00065C25.3191 6.00065 25.6447 5.84145 26.0935 5.62145C26.6151 5.36625 27.2639 5.04785 28.4575 5.04785C28.9831 5.04785 29.4095 5.47425 29.4095 5.99985C29.4095 6.52545 28.9831 6.95185 28.4575 6.95185C27.7055 6.95185 27.3807 7.11105 26.9311 7.33105C26.4103 7.58625 25.7607 7.90465 24.5679 7.90465Z" fill="#E5E8EB"/>
<path id="Vector_2" d="M24.5679 12.6664C23.3751 12.6664 22.7255 12.3488 22.2047 12.0928C21.7551 11.8736 21.4303 11.7136 20.6791 11.7136C19.9279 11.7136 19.6039 11.872 19.1559 12.0928C18.6343 12.348 17.9855 12.6664 16.7927 12.6664C15.5999 12.6664 14.9527 12.3488 14.4319 12.0928C13.9831 11.8728 13.6599 11.7136 12.9103 11.7136C12.1607 11.7136 11.8367 11.872 11.3887 12.0928C10.8679 12.348 10.2191 12.6664 9.02789 12.6664C7.83669 12.6664 7.18709 12.3488 6.66629 12.0928C6.21749 11.8728 5.89349 11.7136 5.14389 11.7136C4.61829 11.7136 4.19189 11.2872 4.19189 10.7616C4.19189 10.236 4.61829 9.80957 5.14389 9.80957C6.33589 9.80957 6.98469 10.1272 7.50549 10.3832C7.95429 10.6032 8.27829 10.7624 9.02789 10.7624C9.77749 10.7624 10.1015 10.604 10.5495 10.3832C11.0703 10.128 11.7191 9.80957 12.9103 9.80957C14.1015 9.80957 14.7503 10.1272 15.2711 10.3832C15.7199 10.6032 16.0431 10.7624 16.7927 10.7624C17.5423 10.7624 17.8687 10.6032 18.3175 10.3832C18.8383 10.128 19.4871 9.80957 20.6791 9.80957C21.8711 9.80957 22.5215 10.1272 23.0423 10.3832C23.4919 10.6024 23.8167 10.7624 24.5679 10.7624C25.3191 10.7624 25.6447 10.6032 26.0935 10.3832C26.6151 10.128 27.2639 9.80957 28.4575 9.80957C28.9831 9.80957 29.4095 10.236 29.4095 10.7616C29.4095 11.2872 28.9831 11.7136 28.4575 11.7136C27.7055 11.7136 27.3807 11.8728 26.9311 12.0928C26.4103 12.348 25.7607 12.6664 24.5679 12.6664Z" fill="#D0D6DE"/>
<path id="Vector_3" d="M24.5679 17.4289C23.3751 17.4289 22.7255 17.1113 22.2039 16.8553C21.7543 16.6353 21.4303 16.4753 20.6791 16.4753C19.9279 16.4753 19.6039 16.6345 19.1559 16.8545C18.6351 17.1105 17.9855 17.4289 16.7927 17.4289C15.5999 17.4289 14.9527 17.1113 14.4319 16.8545C13.9831 16.6353 13.6591 16.4753 12.9103 16.4753C12.1615 16.4753 11.8367 16.6345 11.3887 16.8545C10.8679 17.1105 10.2199 17.4289 9.02789 17.4289C7.83589 17.4289 7.18709 17.1113 6.66629 16.8545C6.21749 16.6353 5.89349 16.4753 5.14389 16.4753C4.61829 16.4753 4.19189 16.0489 4.19189 15.5233C4.19189 14.9977 4.61829 14.5713 5.14389 14.5713C6.33589 14.5713 6.98469 14.8889 7.50549 15.1457C7.95429 15.3649 8.27829 15.5249 9.02789 15.5249C9.77749 15.5249 10.1015 15.3657 10.5495 15.1457C11.0703 14.8897 11.7183 14.5713 12.9103 14.5713C14.1023 14.5713 14.7503 14.8889 15.2711 15.1457C15.7199 15.3649 16.0439 15.5249 16.7927 15.5249C17.5415 15.5249 17.8687 15.3657 18.3167 15.1449C18.8375 14.8897 19.4871 14.5713 20.6791 14.5713C21.8711 14.5713 22.5215 14.8889 23.0431 15.1449C23.4927 15.3649 23.8167 15.5249 24.5679 15.5249C25.3191 15.5249 25.6439 15.3657 26.0927 15.1449C26.6143 14.8897 27.2639 14.5713 28.4575 14.5713C28.9831 14.5713 29.4095 14.9977 29.4095 15.5233C29.4095 16.0489 28.9831 16.4753 28.4575 16.4753C27.7063 16.4753 27.3807 16.6345 26.9311 16.8553C26.4103 17.1105 25.7607 17.4289 24.5679 17.4289Z" fill="#E5E8EB"/>
<path id="Vector_4" d="M24.5679 22.1898C23.3751 22.1898 22.7255 21.8722 22.2047 21.6162C21.7551 21.397 21.4303 21.237 20.6791 21.237C19.9279 21.237 19.6039 21.3954 19.1559 21.6162C18.6343 21.8714 17.9855 22.1898 16.7927 22.1898C15.5999 22.1898 14.9527 21.8722 14.4319 21.6162C13.9831 21.3962 13.6599 21.237 12.9103 21.237C12.1607 21.237 11.8367 21.3954 11.3887 21.6162C10.8679 21.8714 10.2191 22.1898 9.02789 22.1898C7.83669 22.1898 7.18709 21.8722 6.66629 21.6162C6.21749 21.3962 5.89349 21.237 5.14389 21.237C4.61829 21.237 4.19189 20.8106 4.19189 20.285C4.19189 19.7594 4.61829 19.333 5.14389 19.333C6.33589 19.333 6.98469 19.6506 7.50549 19.9066C7.95429 20.1266 8.27829 20.2858 9.02789 20.2858C9.77749 20.2858 10.1015 20.1274 10.5495 19.9066C11.0703 19.6514 11.7191 19.333 12.9103 19.333C14.1015 19.333 14.7503 19.6506 15.2711 19.9066C15.7199 20.1266 16.0431 20.2858 16.7927 20.2858C17.5423 20.2858 17.8687 20.1266 18.3175 19.9066C18.8383 19.6514 19.4871 19.333 20.6791 19.333C21.8711 19.333 22.5215 19.6506 23.0423 19.9066C23.4919 20.1258 23.8167 20.2858 24.5679 20.2858C25.3191 20.2858 25.6447 20.1266 26.0935 19.9066C26.6151 19.6514 27.2639 19.333 28.4575 19.333C28.9831 19.333 29.4095 19.7594 29.4095 20.285C29.4095 20.8106 28.9831 21.237 28.4575 21.237C27.7055 21.237 27.3807 21.3962 26.9311 21.6162C26.4103 21.8714 25.7607 22.1898 24.5679 22.1898Z" fill="#D0D6DE"/>
<path id="Vector_5" d="M24.5679 26.9515C23.3751 26.9515 22.7255 26.6339 22.2047 26.3779C21.7551 26.1587 21.4303 25.9987 20.6791 25.9987C19.9279 25.9987 19.6039 26.1571 19.1559 26.3779C18.6343 26.6331 17.9855 26.9515 16.7927 26.9515C15.5999 26.9515 14.9527 26.6339 14.4319 26.3779C13.9831 26.1579 13.6599 25.9987 12.9103 25.9987C12.1607 25.9987 11.8367 26.1571 11.3887 26.3779C10.8679 26.6331 10.2191 26.9515 9.02789 26.9515C7.83669 26.9515 7.18709 26.6339 6.66629 26.3779C6.21749 26.1579 5.89349 25.9987 5.14389 25.9987C4.61829 25.9987 4.19189 25.5723 4.19189 25.0467C4.19189 24.5211 4.61829 24.0947 5.14389 24.0947C6.33589 24.0947 6.98469 24.4123 7.50549 24.6683C7.95429 24.8883 8.27829 25.0475 9.02789 25.0475C9.77749 25.0475 10.1015 24.8891 10.5495 24.6683C11.0703 24.4131 11.7191 24.0947 12.9103 24.0947C14.1015 24.0947 14.7503 24.4123 15.2711 24.6683C15.7199 24.8883 16.0431 25.0475 16.7927 25.0475C17.5423 25.0475 17.8687 24.8883 18.3175 24.6683C18.8383 24.4131 19.4871 24.0947 20.6791 24.0947C21.8711 24.0947 22.5215 24.4123 23.0423 24.6683C23.4919 24.8875 23.8167 25.0475 24.5679 25.0475C25.3191 25.0475 25.6447 24.8883 26.0935 24.6683C26.6151 24.4131 27.2639 24.0947 28.4575 24.0947C28.9831 24.0947 29.4095 24.5211 29.4095 25.0467C29.4095 25.5723 28.9831 25.9987 28.4575 25.9987C27.7055 25.9987 27.3807 26.1579 26.9311 26.3779C26.4103 26.6331 25.7607 26.9515 24.5679 26.9515Z" fill="#E5E8EB"/>
</g>
</g>
<defs>
<clipPath id="clip0_2431_16343">
<rect width="32" height="32" fill="white"/>
</clipPath>
</defs>
</svg>
