<svg width="20" height="20" viewBox="0 0 20 20" fill="none" xmlns="http://www.w3.org/2000/svg">
<g clip-path="url(#clip0_1329_14625)">
<path d="M7.20196 4.04378L0.869963 16.0718C0.505963 16.7633 1.00746 17.5943 1.78896 17.5943H14.453C15.2345 17.5943 15.736 16.7633 15.372 16.0718L9.03996 4.04328C8.65046 3.30328 7.59146 3.30328 7.20196 4.04328V4.04378Z" fill="#23B169"/>
<path d="M15.3182 8.83039L19.1302 16.0719C19.4942 16.7634 18.9927 17.5944 18.2112 17.5944H8.86621L13.4797 8.83039C13.8692 8.09039 14.9287 8.09039 15.3182 8.83039Z" fill="#0A9F60"/>
<path d="M6.40352 9.12327C7.26052 9.12327 7.26052 10.0168 8.11752 10.0168C8.97452 10.0168 8.97552 9.12327 9.83302 9.12327C10.6905 9.12327 10.6915 10.0168 11.55 10.0168C11.786 10.0168 11.954 9.94677 12.096 9.84877L8.97552 3.92127C8.61352 3.23327 7.62852 3.23327 7.26602 3.92127L4.14502 9.84977C4.28652 9.94727 4.45452 10.0168 4.68902 10.0168C5.54602 10.0168 5.54602 9.12327 6.40302 9.12327H6.40352Z" fill="#68C76F"/>
</g>
<defs>
<clipPath id="clip0_1329_14625">
<rect width="20" height="20" fill="white"/>
</clipPath>
</defs>
</svg>
