<svg width="33" height="32" viewBox="0 0 33 32" fill="none" xmlns="http://www.w3.org/2000/svg">
<g id="&#240;&#159;&#143;&#133;" clip-path="url(#clip0_932_12578)">
<g id="Group">
<path id="Vector" d="M14.4806 15.8263H20.4278C20.7318 15.8263 21.0094 15.6535 21.1446 15.3815L27.4014 2.75188C27.6646 2.21988 27.2782 1.59668 26.6846 1.59668H20.7374C20.4334 1.59668 20.1558 1.76948 20.0206 2.04148L13.7638 14.6711C13.5006 15.2031 13.887 15.8263 14.4806 15.8263Z" fill="#D12030"/>
<path id="Vector_2" d="M18.5191 15.8261H12.5719C12.2679 15.8261 11.9903 15.6533 11.8551 15.3813L5.59826 2.7509C5.33506 2.2189 5.72146 1.5957 6.31506 1.5957H12.2623C12.5663 1.5957 12.8439 1.7685 12.9791 2.0405L19.2359 14.6701C19.4991 15.2021 19.1127 15.8253 18.5191 15.8253V15.8261Z" fill="#EF4452"/>
<path id="Vector_3" d="M16.4997 30.4037C22.4644 30.4037 27.2997 25.5684 27.2997 19.6037C27.2997 13.639 22.4644 8.80371 16.4997 8.80371C10.535 8.80371 5.69971 13.639 5.69971 19.6037C5.69971 25.5684 10.535 30.4037 16.4997 30.4037Z" fill="#FFCD00"/>
<path id="Vector_4" d="M17.1441 13.7713L18.4433 16.4041C18.5481 16.6161 18.7497 16.7625 18.9841 16.7969L21.8889 17.2193C22.4777 17.3049 22.7129 18.0289 22.2865 18.4441L20.1841 20.4929C20.0145 20.6577 19.9377 20.8953 19.9777 21.1281L20.4737 24.0217C20.5745 24.6081 19.9585 25.0553 19.4321 24.7785L16.8337 23.4121C16.6249 23.3025 16.3745 23.3025 16.1657 23.4121L13.5673 24.7785C13.0409 25.0553 12.4249 24.6081 12.5257 24.0217L13.0217 21.1281C13.0617 20.8953 12.9841 20.6577 12.8153 20.4929L10.7129 18.4441C10.2865 18.0289 10.5217 17.3049 11.1105 17.2193L14.0153 16.7969C14.2489 16.7633 14.4513 16.6161 14.5561 16.4041L15.8553 13.7713C16.1185 13.2377 16.8801 13.2377 17.1441 13.7713Z" fill="#FFAA00"/>
</g>
</g>
<defs>
<clipPath id="clip0_932_12578">
<rect width="32" height="32" fill="white" transform="translate(0.5)"/>
</clipPath>
</defs>
</svg>
