<svg width="16" height="16" viewBox="0 0 16 16" fill="none" xmlns="http://www.w3.org/2000/svg">
<g id="Frame" clip-path="url(#clip0_1566_20295)">
<path id="Vector" d="M8.00008 5.33366C8.70733 5.33366 9.3856 5.61461 9.8857 6.11471C10.3858 6.6148 10.6667 7.29308 10.6667 8.00033C10.6667 8.70757 10.3858 9.38585 9.8857 9.88594C9.3856 10.386 8.70733 10.667 8.00008 10.667C7.29284 10.667 6.61456 10.386 6.11446 9.88594C5.61437 9.38585 5.33342 8.70757 5.33342 8.00033C5.33342 7.29308 5.61437 6.6148 6.11446 6.11471C6.61456 5.61461 7.29284 5.33366 8.00008 5.33366ZM2.03341 8.66699H0.666748V7.33366H2.03341C2.33341 4.55366 4.55341 2.33366 7.33342 2.03366V0.666992H8.66675V2.03366C11.4467 2.33366 13.6667 4.55366 13.9667 7.33366H15.3334V8.66699H13.9667C13.6667 11.447 11.4467 13.667 8.66675 13.967V15.3337H7.33342V13.967C4.55341 13.667 2.33341 11.447 2.03341 8.66699ZM8.00008 3.33366C6.7624 3.33366 5.57542 3.82532 4.70025 4.70049C3.82508 5.57566 3.33341 6.76265 3.33341 8.00033C3.33341 9.238 3.82508 10.425 4.70025 11.3002C5.57542 12.1753 6.7624 12.667 8.00008 12.667C9.23776 12.667 10.4247 12.1753 11.2999 11.3002C12.1751 10.425 12.6667 9.238 12.6667 8.00033C12.6667 6.76265 12.1751 5.57566 11.2999 4.70049C10.4247 3.82532 9.23776 3.33366 8.00008 3.33366Z" fill="#868B94"/>
</g>
<defs>
<clipPath id="clip0_1566_20295">
<rect width="16" height="16" fill="white"/>
</clipPath>
</defs>
</svg>
