<svg width="14" height="14" viewBox="0 0 14 14" fill="none" xmlns="http://www.w3.org/2000/svg">
<g id="exercise_running">
<path id="Vector" d="M8.89575 3.79199C9.62063 3.79199 10.2083 3.20437 10.2083 2.47949C10.2083 1.75462 9.62063 1.16699 8.89575 1.16699C8.17087 1.16699 7.58325 1.75462 7.58325 2.47949C7.58325 3.20437 8.17087 3.79199 8.89575 3.79199Z" fill="#ADB1BA"/>
<path id="Vector_2" d="M6.25915 5.0408C5.8953 5.13098 5.64718 5.26702 5.44686 5.43569C5.14621 5.68888 4.90386 6.05423 4.57597 6.62799C4.41614 6.9077 4.05981 7.00488 3.7801 6.84505C3.50036 6.68519 3.40321 6.32886 3.56304 6.04915C3.88927 5.47827 4.21926 4.94423 4.69535 4.5433C5.19244 4.12471 5.80068 3.8877 6.62149 3.79646C6.9644 3.75837 7.34159 3.76604 7.69546 3.92398C8.06696 4.08982 8.33801 4.38697 8.52295 4.78413C8.77198 5.3189 8.95724 5.63729 9.10564 5.82165C9.17699 5.91026 9.22689 5.95135 9.25506 5.96976C9.27755 5.98443 9.287 5.98554 9.29065 5.98595L9.29106 5.986C9.31646 5.9891 9.39851 5.98589 9.64024 5.87905C9.74541 5.83256 9.86045 5.77635 10.0009 5.70773L10.0345 5.6913C10.1865 5.61708 10.3605 5.53264 10.5548 5.44625C10.8492 5.3154 11.194 5.448 11.3248 5.7424C11.4557 6.03678 11.3231 6.3815 11.0287 6.51238C10.8551 6.58952 10.6973 6.666 10.5465 6.73964L10.5084 6.75828C10.3739 6.82399 10.2387 6.89011 10.1119 6.94614C9.84919 7.06225 9.51357 7.18837 9.15004 7.14413C8.76635 7.0974 8.47045 6.88095 8.22709 6.59008L7.42973 8.12789L8.53214 9.56251C8.59791 9.64805 8.63863 9.7502 8.6498 9.85753L8.89267 12.1898C8.92604 12.5102 8.69331 12.797 8.37289 12.8303C8.05244 12.8637 7.76564 12.631 7.73227 12.3106L7.50652 10.1425L6.83692 9.27116L6.83132 9.28198L6.80667 9.23182L5.5693 7.62158C5.44564 7.46067 5.41449 7.24708 5.48705 7.05759L6.25915 5.0408Z" fill="#ADB1BA"/>
<path id="Vector_3" d="M5.37613 8.45996L4.94685 9.61511L3.25484 9.48056C2.93368 9.45501 2.65265 9.69467 2.62711 10.0158C2.60157 10.337 2.84121 10.618 3.16235 10.6436L5.29385 10.813C5.55387 10.8337 5.79601 10.6793 5.8869 10.4347L6.21505 9.55167L5.37613 8.45996Z" fill="#ADB1BA"/>
</g>
</svg>
