<svg width="100%" height="100%" viewBox="0 0 27 26" fill="current" xmlns="http://www.w3.org/2000/svg">
<path fill-rule="evenodd" clip-rule="evenodd" d="M23.2141 13.3931C22.8745 13.3339 22.5253 13.4121 22.2433 13.6104C21.9613 13.8087 21.7696 14.1108 21.7104 14.4504C21.3731 16.3882 20.3617 18.1445 18.8549 19.4088C17.3482 20.6732 15.443 21.3642 13.476 21.3599C8.86748 21.3599 5.11807 17.6105 5.11807 13.0009C5.11807 8.39239 8.86748 4.64298 13.476 4.64298C15.5711 4.64298 17.5417 5.41648 19.0822 6.81398L18.0076 7.88864C17.867 8.0287 17.768 8.20502 17.7216 8.39798C17.6753 8.59094 17.6834 8.79298 17.745 8.98162C17.8067 9.17025 17.9194 9.33808 18.0708 9.46644C18.2221 9.59479 18.4061 9.67864 18.6023 9.70864L23.1653 10.4128C23.332 10.4385 23.5024 10.4245 23.6627 10.372C23.823 10.3195 23.9686 10.2299 24.0878 10.1105C24.2069 9.99116 24.2962 9.84538 24.3485 9.68501C24.4007 9.52464 24.4144 9.35421 24.3884 9.18756L23.6853 4.62564C23.6551 4.42961 23.5712 4.24577 23.4428 4.09453C23.3145 3.94329 23.1468 3.83056 22.9583 3.76885C22.7698 3.70714 22.5679 3.69885 22.3749 3.74492C22.182 3.79098 22.0056 3.88959 21.8653 4.02981L20.9207 4.97556C18.9016 3.08798 16.2399 2.03949 13.476 2.04298C7.43423 2.04298 2.51807 6.95914 2.51807 13.0009C2.51807 19.0437 7.43423 23.9588 13.476 23.9588C18.8146 23.9588 23.3538 20.1476 24.2714 14.8967C24.3305 14.5571 24.2524 14.2079 24.0541 13.926C23.8558 13.644 23.5536 13.4523 23.2141 13.3931Z" fill="current"/>
</svg>
