<svg width="20" height="20" viewBox="0 0 20 20" fill="none" xmlns="http://www.w3.org/2000/svg">
<g id="icon-arrow-down-small-mono">
<path id="Vector" fill-rule="evenodd" clip-rule="evenodd" d="M3.24997 7.18758C3.24997 6.90008 3.36247 6.61258 3.57497 6.38758C3.7858 6.17766 4.07121 6.05981 4.36872 6.05981C4.66623 6.05981 4.95163 6.17766 5.16247 6.38758L9.99997 11.2251L14.825 6.38758C15.0358 6.17767 15.3212 6.05981 15.6187 6.05981C15.9162 6.05981 16.2016 6.17767 16.4125 6.38758C16.6224 6.59841 16.7402 6.88381 16.7402 7.18133C16.7402 7.47884 16.6224 7.76424 16.4125 7.97508L10.7875 13.6001C10.5766 13.81 10.2912 13.9278 9.99372 13.9278C9.69621 13.9278 9.4108 13.81 9.19997 13.6001L3.57497 7.97508C3.36247 7.76258 3.24997 7.47508 3.24997 7.18758Z" fill="#ADB1BA"/>
</g>
</svg>
