<svg width="100%" height="100%" viewBox="0 0 24 24" fill="current" xmlns="http://www.w3.org/2000/svg">
<g id="icon-circle-empty-mono">
<path id="Vector" d="M12 3C17 3 21 7 21 12C21 17 17 21 12 21C7 21 3 17 3 12C3 7 7 3 12 3ZM12 1C5.9 1 1 5.9 1 12C1 18.1 5.9 23 12 23C18.1 23 23 18.1 23 12C23 5.9 18.1 1 12 1Z" fill="current"/>
<rect id="Rectangle 3466170" x="11" y="2" width="2" height="5" rx="1" fill="current"/>
<rect id="Rectangle 3466171" x="11" y="17" width="2" height="5" rx="1" fill="current"/>
<rect id="Rectangle 3466172" x="22" y="11" width="2" height="5" rx="1" transform="rotate(90 22 11)" fill="current"/>
<rect id="Rectangle 3466173" x="7" y="11" width="2" height="5" rx="1" transform="rotate(90 7 11)" fill="current"/>
<circle id="Ellipse 39" cx="12" cy="12" r="1" fill="current"/>
</g>
</svg>
