<svg width="24" height="24" viewBox="0 0 24 24" fill="none" xmlns="http://www.w3.org/2000/svg">
<path fill-rule="evenodd" clip-rule="evenodd" d="M20.1 15.375C20.1 15.72 19.965 16.065 19.71 16.335C19.457 16.5869 19.1145 16.7283 18.7575 16.7283C18.4005 16.7283 18.058 16.5869 17.805 16.335L12 10.53L6.21 16.335C5.957 16.5869 5.61452 16.7283 5.2575 16.7283C4.90048 16.7283 4.558 16.5869 4.305 16.335C4.0531 16.082 3.91168 15.7395 3.91168 15.3825C3.91168 15.0255 4.0531 14.683 4.305 14.43L11.055 7.68C11.308 7.4281 11.6505 7.28668 12.0075 7.28668C12.3645 7.28668 12.707 7.4281 12.96 7.68L19.71 14.43C19.965 14.685 20.1 15.03 20.1 15.375Z" fill="#ADB1BA"/>
</svg>
