<svg width="129" height="36" viewBox="0 0 129 36" fill="none" xmlns="http://www.w3.org/2000/svg">
<path d="M124.649 0C127.164 0 129 1.83647 129 4.35163C129 6.86679 127.164 8.70326 124.649 8.70326C122.133 8.70326 120.297 6.86679 120.297 4.35163C120.297 1.83647 122.133 0 124.649 0ZM128.202 11.2983V34.7731H121.095V11.2983H128.202Z" fill="#212124"/>
<path d="M103.116 35.2521C96.4088 35.2521 91.7378 30.102 91.7378 22.9957C91.7378 15.8894 96.4088 10.7393 103.116 10.7393C106.19 10.7393 108.426 11.8172 109.823 13.6936V1.15771H116.929V34.6932H109.823V32.2978C108.426 34.1742 106.19 35.2521 103.116 35.2521ZM104.234 29.1838C107.707 29.1838 109.943 26.5888 109.943 22.9957C109.943 19.4026 107.707 16.8076 104.234 16.8076C100.84 16.8076 98.6844 19.4026 98.6844 22.9957C98.6844 26.5888 100.84 29.1838 104.234 29.1838Z" fill="#212124"/>
<path d="M66.5298 34.6932V11.2982H73.6361V13.6936C75.0334 11.8172 77.1893 10.7393 80.1835 10.7393C85.6131 10.7393 89.3259 14.6917 89.3259 21.1592V34.6932H82.2196V22.3569C82.2196 18.8037 80.7824 16.8475 78.1075 16.8475C75.3129 16.8475 73.6361 19.0433 73.6361 22.6763V34.6932H66.5298Z" fill="#212124"/>
<path d="M48.5505 35.2521C41.8434 35.2521 37.1724 30.102 37.1724 22.9957C37.1724 15.8894 41.8434 10.7393 48.5505 10.7393C51.6246 10.7393 53.8603 11.8172 55.2576 13.6936V11.2982H62.3639V34.6932H55.2576V32.2978C53.8603 34.1742 51.6246 35.2521 48.5505 35.2521ZM49.6683 29.1838C53.1416 29.1838 55.3773 26.5888 55.3773 22.9957C55.3773 19.4026 53.1416 16.8076 49.6683 16.8076C46.2749 16.8076 44.119 19.4026 44.119 22.9957C44.119 26.5888 46.2749 29.1838 49.6683 29.1838Z" fill="#212124"/>
<path d="M0 34.6932V2.15576H5.78887L17.0073 20.3607L28.2257 2.15576H34.0146V34.6932H26.7485V16.8475L19.2031 29.3435H14.8115L7.26602 16.8475V34.6932H0Z" fill="#212124"/>
</svg>
