<svg width="16" height="16" viewBox="0 0 16 16" fill="none" xmlns="http://www.w3.org/2000/svg">
<g id="icon-arrow-right-small-mono">
<path id="Vector" fill-rule="evenodd" clip-rule="evenodd" d="M5.75011 13.3996C5.52011 13.3996 5.29011 13.3096 5.11011 13.1396C4.94218 12.971 4.8479 12.7426 4.8479 12.5046C4.8479 12.2666 4.94218 12.0383 5.11011 11.8696L8.98011 7.99963L5.11011 4.13963C4.94218 3.97096 4.8479 3.74264 4.8479 3.50463C4.8479 3.26662 4.94218 3.0383 5.11011 2.86963C5.27878 2.7017 5.5071 2.60742 5.74511 2.60742C5.98312 2.60742 6.21144 2.7017 6.38011 2.86963L10.8801 7.36963C11.048 7.5383 11.1423 7.76662 11.1423 8.00463C11.1423 8.24264 11.048 8.47097 10.8801 8.63963L6.38011 13.1396C6.21011 13.3096 5.98011 13.3996 5.75011 13.3996Z" fill="#ADB1BA"/>
</g>
</svg>
