<svg width="16" height="17" viewBox="0 0 16 17" fill="none" xmlns="http://www.w3.org/2000/svg">
<g id="icon-ellipsis-vertical">
<path id="Vector (Stroke)" fill-rule="evenodd" clip-rule="evenodd" d="M7 4.5C7 3.94772 7.44772 3.5 8 3.5C8.55228 3.5 9 3.94772 9 4.5C9 5.05228 8.55228 5.5 8 5.5C7.44772 5.5 7 5.05228 7 4.5ZM7 8.5C7 7.94772 7.44772 7.5 8 7.5C8.55228 7.5 9 7.94772 9 8.5C9 9.05228 8.55228 9.5 8 9.5C7.44772 9.5 7 9.05228 7 8.5ZM7 12.5C7 11.9477 7.44772 11.5 8 11.5C8.55228 11.5 9 11.9477 9 12.5C9 13.0523 8.55228 13.5 8 13.5C7.44772 13.5 7 13.0523 7 12.5Z" fill="#ADB1BA"/>
</g>
</svg>
