<svg width="100%" height="100%" viewBox="0 0 16 17" fill="current" xmlns="http://www.w3.org/2000/svg">
<path fill-rule="evenodd" clip-rule="evenodd" d="M8.90462 6.31055H7.32129V8.57321H8.90462C9.52862 8.57321 10.036 8.06655 10.036 7.44188C10.036 6.81788 9.52929 6.31055 8.90462 6.31055Z" fill="current"/>
<path fill-rule="evenodd" clip-rule="evenodd" d="M8.90466 9.93054H7.32133V11.7405C7.31189 11.9142 7.23625 12.0777 7.10994 12.1974C6.98364 12.317 6.81629 12.3837 6.64233 12.3837C6.46836 12.3837 6.30101 12.317 6.17471 12.1974C6.04841 12.0777 5.97276 11.9142 5.96333 11.7405V4.95187H8.90466C9.56471 4.95258 10.1975 5.21518 10.6641 5.68203C11.1307 6.14889 11.393 6.78182 11.3933 7.44187C11.3926 8.10169 11.1302 8.73428 10.6636 9.20084C10.1971 9.66741 9.56448 9.92983 8.90466 9.93054ZM7.99999 1.0332C3.87599 1.0332 0.533325 4.37654 0.533325 8.49987C0.533325 12.6239 3.87599 15.9665 7.99999 15.9665C12.1233 15.9665 15.4667 12.6239 15.4667 8.49987C15.4667 4.37654 12.1233 1.0332 7.99999 1.0332Z" fill="current"/>
</svg>
