<svg width="100%" height="100%" viewBox="0 0 16 17" fill="current" xmlns="http://www.w3.org/2000/svg">
<path fill-rule="evenodd" clip-rule="evenodd" d="M12 8.83268L10.5333 9.29935C9.73329 9.56602 9.13329 10.166 8.86663 10.966L8.33329 12.4993C8.19996 12.8327 7.79996 12.8327 7.73329 12.4993L7.26663 11.0327C6.99996 10.2327 6.39996 9.63268 5.59996 9.36602L3.99996 8.83268C3.66663 8.69935 3.66663 8.29935 3.99996 8.23268L5.46663 7.76602C6.26663 7.49935 6.86663 6.89935 7.13329 6.09935L7.66663 4.49935C7.79996 4.16602 8.19996 4.16602 8.26663 4.49935L8.73329 5.96602C8.99996 6.76602 9.59996 7.36602 10.4 7.63268L11.8666 8.09935C12.3333 8.29935 12.3333 8.69935 12 8.83268ZM7.99996 1.16602C3.93329 1.16602 0.666626 4.43268 0.666626 8.49935C0.666626 12.566 3.93329 15.8327 7.99996 15.8327C12.0666 15.8327 15.3333 12.566 15.3333 8.49935C15.3333 4.43268 12.0666 1.16602 7.99996 1.16602Z" fill="current"/>
</svg>
