<svg width="67" height="52" viewBox="0 0 67 52" fill="none" xmlns="http://www.w3.org/2000/svg">
<path d="M28.0628 4.56006L56.1257 51.9161H0L28.0628 4.56006Z" fill="#00B288"/>
<path d="M50.6885 24.9058L67 51.9162H34.377L50.6885 24.9058Z" fill="#00B288"/>
<path d="M20.1702 18.2407L40.3403 51.9161H0L20.1702 18.2407Z" fill="#00B288"/>
<path d="M40.3404 51.9163L19.9949 18.0655L21.398 13.6704L44.3057 51.9163H40.3404Z" fill="white"/>
<path d="M47.2478 6.0542L61.9881 7.84155L61.669 10.4738L46.9286 8.6864L47.2478 6.0542Z" fill="#00B288"/>
<path d="M56.6682 1.05322L54.8809 15.7936L52.2487 15.4744L54.036 0.734053L56.6682 1.05322Z" fill="#00B288"/>
<path d="M61.1196 4.72754L49.4328 13.8867L47.7972 11.7997L59.4841 2.6406L61.1196 4.72754Z" fill="#00B288"/>
<path d="M57.9946 14.9248L48.8355 3.23797L50.9224 1.60241L60.0816 13.2892L57.9946 14.9248Z" fill="#00B288"/>
</svg>
