<svg width="61" height="60" viewBox="0 0 61 60" fill="none" xmlns="http://www.w3.org/2000/svg">
<g id="&#240;&#159;&#167;&#190;" clip-path="url(#clip0_932_12837)">
<path id="Vector" d="M51.7818 50.304V7.7325C51.7818 6.3615 50.6703 5.25 49.2993 5.25H11.7003C10.3293 5.25 9.21777 6.3615 9.21777 7.7325V50.304C9.21777 51.1185 9.61677 51.882 10.2873 52.3455L13.1253 54.3105C13.9758 54.8985 15.1008 54.8985 15.9498 54.3105L18.4458 52.584C19.2963 51.996 20.4213 51.996 21.2703 52.584L23.7663 54.3105C24.6168 54.8985 25.7418 54.8985 26.5908 54.3105L29.0853 52.584C29.9358 51.996 31.0608 51.996 31.9098 52.584L34.4058 54.3105C35.2563 54.8985 36.3813 54.8985 37.2303 54.3105L39.7263 52.584C40.5768 51.996 41.7018 51.996 42.5508 52.584L45.0468 54.3105C45.8973 54.8985 47.0223 54.8985 47.8713 54.3105L50.7093 52.3455C51.3798 51.882 51.7788 51.1185 51.7788 50.304H51.7818Z" fill="#E5E8EB"/>
<path id="Vector_2" d="M46.0533 41.0745H14.9463V42.5745H46.0533V41.0745Z" fill="#AFB7C0"/>
<path id="Vector_3" d="M46.0533 35.634H41.9463V37.134H46.0533V35.634Z" fill="#AFB7C0"/>
<path id="Vector_4" d="M46.0533 30.1919H41.9463V31.6919H46.0533V30.1919Z" fill="#AFB7C0"/>
<path id="Vector_5" d="M46.0533 24.75H41.9463V26.25H46.0533V24.75Z" fill="#AFB7C0"/>
<path id="Vector_6" d="M31.0533 35.634H14.9463V37.134H31.0533V35.634Z" fill="#AFB7C0"/>
<path id="Vector_7" d="M31.0533 30.1919H14.9463V31.6919H31.0533V30.1919Z" fill="#AFB7C0"/>
<path id="Vector_8" d="M31.0533 24.75H14.9463V26.25H31.0533V24.75Z" fill="#AFB7C0"/>
<path id="Vector_9" d="M46.0533 13.8676H14.9463V15.3676H46.0533V13.8676Z" fill="#AFB7C0"/>
</g>
<defs>
<clipPath id="clip0_932_12837">
<rect width="60" height="60" fill="white" transform="translate(0.5)"/>
</clipPath>
</defs>
</svg>
