<svg width="81" height="22" viewBox="0 0 81 22" fill="none" xmlns="http://www.w3.org/2000/svg">
<path d="M77.79 0C79.3596 0 80.5057 1.14609 80.5057 2.71574C80.5057 4.28539 79.3596 5.43148 77.79 5.43148C76.2203 5.43148 75.0742 4.28539 75.0742 2.71574C75.0742 1.14609 76.2203 0 77.79 0ZM80.0074 7.05096V21.701H75.5725V7.05096H80.0074Z" fill="#212124"/>
<path d="M64.3519 22C60.1662 22 57.2511 18.786 57.2511 14.3511C57.2511 9.9162 60.1662 6.70215 64.3519 6.70215C66.2704 6.70215 67.6656 7.37486 68.5376 8.54587V0.722538H72.9725V21.6512H68.5376V20.1563C67.6656 21.3273 66.2704 22 64.3519 22ZM65.0495 18.2129C67.2171 18.2129 68.6124 16.5934 68.6124 14.3511C68.6124 12.1087 67.2171 10.4892 65.0495 10.4892C62.9317 10.4892 61.5863 12.1087 61.5863 14.3511C61.5863 16.5934 62.9317 18.2129 65.0495 18.2129Z" fill="#212124"/>
<path d="M41.5194 21.6512V7.05096H45.9543V8.54587C46.8263 7.37486 48.1717 6.70215 50.0404 6.70215C53.4288 6.70215 55.7459 9.16874 55.7459 13.205V21.6512H51.311V13.9524C51.311 11.735 50.4141 10.5142 48.7448 10.5142C47.0007 10.5142 45.9543 11.8845 45.9543 14.1518V21.6512H41.5194Z" fill="#212124"/>
<path d="M30.299 22C26.1133 22 23.1982 18.786 23.1982 14.3511C23.1982 9.9162 26.1133 6.70215 30.299 6.70215C32.2175 6.70215 33.6127 7.37486 34.4848 8.54587V7.05096H38.9196V21.6512H34.4848V20.1563C33.6127 21.3273 32.2175 22 30.299 22ZM30.9967 18.2129C33.1643 18.2129 34.5595 16.5934 34.5595 14.3511C34.5595 12.1087 33.1643 10.4892 30.9967 10.4892C28.8789 10.4892 27.5335 12.1087 27.5335 14.3511C27.5335 16.5934 28.8789 18.2129 30.9967 18.2129Z" fill="#212124"/>
<path d="M0 21.6512V1.34541H3.61268L10.6138 12.7067L17.6149 1.34541H21.2276V21.6512H16.6931V10.5141L11.9841 18.3126H9.24349L4.53454 10.5141V21.6512H0Z" fill="#212124"/>
</svg>
