<svg width="72" height="40" viewBox="0 0 72 40" fill="none" xmlns="http://www.w3.org/2000/svg">
<path fill-rule="evenodd" clip-rule="evenodd" d="M44.969 8.20399L36.522 1.48699C36.3453 1.34615 36.126 1.26945 35.9 1.26945C35.674 1.26945 35.4547 1.34615 35.278 1.48699L26.83 8.20399C26.5946 8.39127 26.4044 8.62925 26.2737 8.90022C26.143 9.17118 26.075 9.46815 26.075 9.76899V19.187C26.075 19.8235 26.3279 20.434 26.778 20.8841C27.228 21.3341 27.8385 21.587 28.475 21.587H33.9V16.835C33.9 16.5698 34.0054 16.3154 34.1929 16.1279C34.3804 15.9404 34.6348 15.835 34.9 15.835H36.9C37.1652 15.835 37.4196 15.9404 37.6071 16.1279C37.7947 16.3154 37.9 16.5698 37.9 16.835V21.587H43.324C43.9605 21.587 44.571 21.3341 45.0211 20.8841C45.4712 20.434 45.724 19.8235 45.724 19.187V9.76999C45.724 9.46915 45.6561 9.17218 45.5253 8.90122C45.3946 8.63025 45.2045 8.39227 44.969 8.20499" fill="#4D5159"/>
<path d="M38.8737 35.1934V37.6738H32.8971V35.1934H38.8737ZM31.9303 34.5293V33.9141H35.5045V33.2451C33.942 33.1865 33.0631 32.7764 33.0631 32.0195C33.0631 31.2139 34.0836 30.7988 35.8854 30.7891C37.6823 30.7988 38.6979 31.2139 38.6979 32.0195C38.6979 32.7764 37.8239 33.1865 36.2662 33.2451V33.9141H39.8405V34.5293H31.9303ZM32.3405 30.4375V29.8418H35.5045V28.9824H36.2662V29.8418H39.3815V30.4375H32.3405ZM33.6588 37.0781H38.1217V35.7891H33.6588V37.0781ZM33.8834 32.0195C33.8785 32.4639 34.611 32.7129 35.8854 32.7129C37.1598 32.7129 37.8824 32.4639 37.8873 32.0195C37.8824 31.5703 37.1598 31.3359 35.8854 31.3262C34.611 31.3359 33.8785 31.5703 33.8834 32.0195Z" fill="#393A40"/>
</svg>
