<svg width="72" height="40" viewBox="0 0 72 40" fill="none" xmlns="http://www.w3.org/2000/svg">
<path fill-rule="evenodd" clip-rule="evenodd" d="M40.987 6.644C40.9871 7.28682 40.8605 7.92336 40.6146 8.51727C40.3687 9.11118 40.0082 9.65084 39.5537 10.1054C39.0992 10.56 38.5596 10.9206 37.9657 11.1667C37.3719 11.4128 36.7353 11.5394 36.0925 11.5395C34.7943 11.5396 33.5492 11.024 32.6311 10.1061C31.713 9.18824 31.1972 7.94323 31.197 6.645C31.197 6.00218 31.3235 5.36564 31.5694 4.77172C31.8154 4.17781 32.1759 3.63815 32.6304 3.18356C33.5483 2.26548 34.7933 1.74963 36.0915 1.7495C37.3898 1.74936 38.6349 2.26496 39.553 3.18286C40.471 4.10075 40.9869 5.34576 40.987 6.644ZM36.092 13.037C29.043 13.037 26.301 17.523 26.301 19.61C26.301 21.696 32.138 22.252 36.092 22.252C40.046 22.252 45.883 21.696 45.883 19.61C45.883 17.523 43.141 13.037 36.092 13.037Z" fill="#4D5159"/>
<path d="M29.645 29.1094V37.791H28.893V33.2988H27.643V37.3418H26.9203V29.3047H27.643V32.6445H28.893V29.1094H29.645ZM22.6723 35.5449V30.1738H23.434V34.8613C24.2934 34.8564 25.2211 34.793 26.2758 34.5781L26.3735 35.2617C25.1625 35.4814 24.1664 35.5449 23.2094 35.5449H22.6723ZM40.5825 29.1094V34.2852H39.811V32.0098H38.0629V31.375H39.811V29.1094H40.5825ZM33.4243 33.5918C34.7133 33.1279 35.6313 31.9512 35.6313 30.7109V30.3887H33.6684V29.7441H38.3461V30.3887H36.4028V30.7012C36.4028 31.834 37.2719 32.9131 38.5414 33.3477L38.1411 33.9629C37.1694 33.6113 36.4125 32.8789 36.0366 31.9854C35.6655 33.001 34.8598 33.8115 33.8246 34.207L33.4243 33.5918ZM34.7914 36.1699C34.7866 35.1494 35.895 34.5537 37.7016 34.5586C39.5034 34.5537 40.6118 35.1494 40.6118 36.1699C40.6118 37.1953 39.5034 37.7812 37.7016 37.791C35.895 37.7812 34.7866 37.1953 34.7914 36.1699ZM35.5532 36.1699C35.5483 36.7998 36.3686 37.1807 37.7016 37.1758C39.0297 37.1807 39.85 36.7998 39.85 36.1699C39.85 35.5352 39.0297 35.1543 37.7016 35.1543C36.3686 35.1543 35.5483 35.5352 35.5532 36.1699ZM49.977 36.043V36.6777H42.0278V36.043H45.602V34.168H42.9653V29.7246H43.7368V31.2969H48.2485V29.7246H49.0004V34.168H46.3539V36.043H49.977ZM43.7368 33.543H48.2485V31.9219H43.7368V33.543Z" fill="#393A40"/>
</svg>
