<svg width="73" height="40" viewBox="0 0 73 40" fill="none" xmlns="http://www.w3.org/2000/svg">
<path d="M30.97 14H28.3C27.2 14 26.3 14.9 26.3 16V21C26.3 21.55 26.75 22 27.3 22H30.97C31.52 22 31.97 21.55 31.97 21V15C31.97 14.45 31.52 14 30.97 14Z" fill="#4D5159"/>
<path d="M37.63 10H34.96C33.86 10 32.96 10.9 32.96 12V21C32.96 21.55 33.41 22 33.96 22H38.63C39.18 22 39.63 21.55 39.63 21V12C39.63 10.9 38.74 10 37.63 10Z" fill="#4D5159"/>
<path d="M44.3001 17H41.6301C41.0801 17 40.6301 17.45 40.6301 18V21C40.6301 21.55 41.0801 22 41.6301 22H45.3001C45.8501 22 46.3001 21.55 46.3001 21V19C46.3001 17.9 45.4001 17 44.3001 17Z" fill="#4D5159"/>
<path d="M39.3101 4.85C39.62 4.54 39.74 4.17 39.64 3.85C39.5401 3.53 39.23 3.3 38.79 3.23L37.83 3.07C37.79 3.07 37.7 3 37.68 2.96L37.1501 1.9C36.7501 1.09 35.8401 1.09 35.4401 1.9L34.91 2.96C34.9 3 34.8101 3.07 34.7701 3.07L33.8101 3.23C33.3701 3.3 33.07 3.53 32.96 3.85C32.86 4.17 32.98 4.54 33.29 4.85L34.03 5.6C34.07 5.63 34.1 5.75 34.09 5.79L33.88 6.71C33.72 7.4 33.9801 7.71 34.1501 7.83C34.3201 7.95 34.69 8.11 35.3 7.75L36.2 7.22C36.24 7.19 36.37 7.19 36.41 7.22L37.3 7.75C37.58 7.92 37.81 7.97 37.99 7.97C38.2 7.97 38.35 7.89 38.4401 7.83C38.6101 7.71 38.87 7.4 38.71 6.71L38.5 5.79C38.49 5.74 38.5201 5.63 38.5601 5.6L39.3101 4.85Z" fill="#4D5159"/>
<path d="M35.3821 29.1191V34.4707H34.6497V32.0684H33.429V34.168H32.7161V29.2852H33.429V31.4336H34.6497V29.1191H35.3821ZM28.3899 30.3887V29.7637H31.6809V32.1074H29.1516V33.3281C30.2942 33.3281 31.1731 33.2891 32.1985 33.0742L32.2864 33.709C31.1584 33.9189 30.2356 33.9629 28.9758 33.9629H28.4094V31.5215H30.9485V30.3887H28.3899ZM29.6008 36.209C29.5911 35.2178 30.7043 34.6465 32.511 34.6465C34.3079 34.6465 35.426 35.2178 35.4309 36.209C35.426 37.1953 34.3079 37.7715 32.511 37.7715C30.7043 37.7715 29.5911 37.1953 29.6008 36.209ZM30.3625 36.209C30.3528 36.8145 31.178 37.166 32.511 37.166C33.8293 37.166 34.6594 36.8145 34.6692 36.209C34.6594 35.6035 33.8293 35.2471 32.511 35.2422C31.178 35.2471 30.3528 35.6035 30.3625 36.209ZM41.2708 29.7148C41.2659 31.9316 39.9866 33.5527 37.1985 34.373L36.9055 33.748C38.3899 33.3232 39.3616 32.6836 39.9084 31.8779L36.9739 32.1074L36.8372 31.4727L40.2161 31.3115C40.3381 31.0039 40.4163 30.6816 40.4456 30.3398H37.2766V29.7148H41.2708ZM37.9993 36.1113C37.9993 35.0664 39.1174 34.4609 40.9387 34.4609C42.7356 34.4609 43.8635 35.0664 43.8586 36.1113C43.8635 37.1709 42.7356 37.7715 40.9387 37.7715C39.1174 37.7715 37.9993 37.1709 37.9993 36.1113ZM38.761 36.1113C38.7659 36.7656 39.5862 37.166 40.9387 37.166C42.2668 37.166 43.1018 36.7656 43.1067 36.1113C43.1018 35.4668 42.2668 35.0664 40.9387 35.0664C39.5862 35.0664 38.7659 35.4668 38.761 36.1113ZM43.0579 34.3438V29.1191H43.8196V34.3438H43.0579Z" fill="#393A40"/>
</svg>
