<svg width="40" height="40" viewBox="0 0 40 40" fill="none" xmlns="http://www.w3.org/2000/svg">
<g id="&#240;&#159;&#152;&#141;" clip-path="url(#clip0_932_12562)">
<g id="Group">
<path id="Vector" d="M19.9997 37.4887C29.6586 37.4887 37.4887 29.6586 37.4887 19.9997C37.4887 10.3408 29.6586 2.51074 19.9997 2.51074C10.3408 2.51074 2.51074 10.3408 2.51074 19.9997C2.51074 29.6586 10.3408 37.4887 19.9997 37.4887Z" fill="#FFC84D"/>
<g id="Group_2">
<path id="SVGID" d="M10.7265 21.2451C9.57449 21.2451 9.04149 22.1081 9.26949 23.0391C10.2785 27.1601 14.6945 30.2621 19.9905 30.2621C25.2865 30.2621 29.7025 27.1591 30.7115 23.0391C30.9395 22.1081 30.6405 21.3371 29.4885 21.3371L10.7265 21.2451Z" fill="#FF6D00"/>
<path id="Vector_2" d="M29.4876 21.3371C27.4956 22.8291 24.0646 23.8141 20.1666 23.8141C16.1896 23.8141 12.6986 22.7881 10.7256 21.2451L29.4866 21.3371H29.4876Z" fill="white"/>
</g>
<g id="Group_3">
<path id="Vector_3" d="M14.0987 18.5949C14.3747 18.7769 14.7307 18.7769 15.0067 18.5949C15.8827 18.0159 17.7927 16.6329 18.6137 15.0849C19.6977 13.0429 18.4247 11.0059 16.7417 11.0059C15.7827 11.0059 15.2047 11.5069 14.8857 11.9379C14.7177 12.1649 14.3847 12.1649 14.2167 11.9379C13.8977 11.5069 13.3207 11.0059 12.3607 11.0059C10.6777 11.0059 9.4047 13.0429 10.4887 15.0849C11.3107 16.6329 13.2197 18.0159 14.0957 18.5949H14.0987Z" fill="#F5172B"/>
<path id="Vector_4" d="M25.9012 18.5949C25.6252 18.7769 25.2692 18.7769 24.9932 18.5949C24.1172 18.0159 22.2072 16.6329 21.3862 15.0849C20.3022 13.0429 21.5752 11.0059 23.2582 11.0059C24.2172 11.0059 24.7952 11.5069 25.1142 11.9379C25.2822 12.1649 25.6152 12.1649 25.7832 11.9379C26.1022 11.5069 26.6792 11.0059 27.6392 11.0059C29.3222 11.0059 30.5952 13.0429 29.5112 15.0849C28.6892 16.6329 26.7802 18.0159 25.9042 18.5949H25.9012Z" fill="#F5172B"/>
</g>
</g>
</g>
<defs>
<clipPath id="clip0_932_12562">
<rect width="40" height="40" fill="white"/>
</clipPath>
</defs>
</svg>
