<svg width="24" height="24" viewBox="0 0 24 24" fill="none" xmlns="http://www.w3.org/2000/svg">
<path fill-rule="evenodd" clip-rule="evenodd" d="M16.887 6.644C16.8871 7.28682 16.7605 7.92336 16.5146 8.51727C16.2686 9.11119 15.9081 9.65085 15.4536 10.1054C14.9991 10.56 14.4596 10.9206 13.8657 11.1667C13.2718 11.4128 12.6353 11.5394 11.9925 11.5395C10.6943 11.5396 9.44915 11.024 8.53107 10.1061C7.61299 9.18824 7.09714 7.94324 7.097 6.645C7.09694 6.00218 7.22349 5.36564 7.46942 4.77173C7.71536 4.17781 8.07587 3.63816 8.53036 3.18357C9.44826 2.26548 10.6933 1.74963 11.9915 1.7495C13.2897 1.74937 14.5349 2.26496 15.4529 3.18286C16.371 4.10076 16.8869 5.34577 16.887 6.644ZM11.992 13.037C4.943 13.037 2.201 17.523 2.201 19.61C2.201 21.696 8.038 22.252 11.992 22.252C15.946 22.252 21.783 21.696 21.783 19.61C21.783 17.523 19.041 13.037 11.992 13.037Z" fill="#ADB1BA"/>
</svg>
