<svg width="24" height="24" viewBox="0 0 24 24" fill="none" xmlns="http://www.w3.org/2000/svg">
<path fill-rule="evenodd" clip-rule="evenodd" d="M13.787 3.80513C13.3322 1.93163 10.6678 1.93163 10.2129 3.80513C9.91913 5.01539 8.53254 5.58973 7.46899 4.94171C5.82262 3.93854 3.93854 5.82262 4.94171 7.46899C5.58973 8.53254 5.01539 9.91912 3.80513 10.2129C1.93163 10.6678 1.93163 13.3322 3.80513 13.787C5.01539 14.0809 5.58973 15.4675 4.94171 16.531C3.93854 18.1774 5.82262 20.0615 7.46901 19.0583C8.53254 18.4103 9.91913 18.9846 10.2129 20.1949C10.6678 22.0684 13.3322 22.0684 13.787 20.1949C14.0809 18.9846 15.4675 18.4103 16.531 19.0583C18.1774 20.0615 20.0615 18.1774 19.0583 16.531C18.4103 15.4675 18.9846 14.0809 20.1949 13.787C22.0684 13.3322 22.0684 10.6678 20.1949 10.2129C18.9846 9.91912 18.4103 8.53254 19.0583 7.46899C20.0615 5.82262 18.1774 3.93854 16.531 4.94171C15.4675 5.58973 14.0809 5.01539 13.787 3.80513ZM12 15.6C13.9883 15.6 15.6 13.9883 15.6 12C15.6 10.0118 13.9883 8.4 12 8.4C10.0118 8.4 8.4 10.0118 8.4 12C8.4 13.9883 10.0118 15.6 12 15.6Z" fill="#ADB1BA"/>
</svg>
