<svg width="40" height="40" viewBox="0 0 40 40" fill="none" xmlns="http://www.w3.org/2000/svg">
<g id="&#240;&#159;&#154;&#182;&#240;&#159;&#143;&#187;">
<g id="Group">
<path id="Vector" d="M23.97 2.96043C23.97 2.95043 23.96 2.95043 23.95 2.94043L21.32 5.22043C20.91 4.55043 20.12 4.32043 19.48 4.73043C18.8 5.17043 18.56 6.16043 18.94 6.94043C19.1 7.27043 19.34 7.51043 19.63 7.64043L18.58 9.49043L18.57 9.51043L18.54 9.48043L18.21 10.0704C18.62 9.97043 19.03 9.96043 19.42 10.0904C19.94 10.2804 20.37 10.5304 20.72 10.8204L21.16 10.0404C21.99 9.95043 22.81 9.62043 23.49 9.04043C25.3 7.49043 25.52 4.77043 23.97 2.96043ZM23.8 6.43043C23.59 6.43043 23.42 6.13043 23.42 5.76043C23.42 5.39043 23.59 5.08043 23.8 5.08043C24.01 5.08043 24.19 5.39043 24.19 5.76043C24.19 6.13043 24.02 6.43043 23.8 6.43043Z" fill="#FFCCA8"/>
<g id="Group_2">
<path id="Vector_2" d="M13.4002 21.1806C13.5002 21.5306 13.5302 21.9006 13.4702 22.2906C13.2402 23.7006 11.9102 24.6606 10.5002 24.4306C9.09021 24.2006 8.13021 22.8706 8.36021 21.4606C8.44021 20.9706 8.66021 20.5406 8.96021 20.1906L8.95021 20.1806L12.8202 15.1006L15.7702 18.0706L13.4002 21.1806Z" fill="#FFCCA8"/>
<path id="Vector_3" d="M31.01 17.3609C30.88 18.1809 30.32 18.8309 29.6 19.1309L27.18 20.8309C25.81 21.8009 23.93 21.5809 22.82 20.3209L22.25 19.7009V14.1709L24.87 17.0209C25.14 17.3309 25.61 17.3909 25.95 17.1509L26.41 16.8209C26.41 16.7609 26.41 16.6909 26.42 16.6209C26.62 15.3509 27.82 14.4909 29.08 14.6909C30.35 14.9009 31.21 16.0909 31.01 17.3609Z" fill="#FFCCA8"/>
</g>
</g>
<path id="Vector_4" d="M28.7711 32.2241L22.2371 21.8751H15.7141V21.8301L9.9541 30.9921L14.2541 33.8791V33.8821L18.4461 27.2161C18.6861 26.8341 19.2421 26.8341 19.4821 27.2161L24.4671 35.1121L24.2771 34.8021L28.7701 32.2251L28.7711 32.2241Z" fill="#3E5AF4"/>
<path id="Vector_5" d="M22.2365 21.8748H22.2515V14.0038C22.2515 14.0038 22.2325 12.0658 20.7205 10.8168C20.3715 10.5288 19.9435 10.2768 19.4165 10.0948C19.0275 9.95983 18.6195 9.96883 18.2055 10.0658C15.6305 10.6708 12.8115 15.0848 12.8115 15.0848L12.8225 15.0958L15.7695 18.0658L15.7145 21.8298V21.8748H22.2365Z" fill="#8595AA"/>
<g id="Group_3">
<path id="Vector_6" d="M33.4233 33.9476L33.1433 33.4906C32.7273 32.8116 31.9943 32.3926 31.1983 32.3786L28.7703 32.2256L24.2773 34.8026L24.4673 35.1126L26.3963 38.2586C26.5193 38.4586 26.7803 38.5216 26.9813 38.3986L33.2843 34.5336C33.4843 34.4106 33.5473 34.1486 33.4243 33.9486L33.4233 33.9476Z" fill="#4E5968"/>
<path id="Vector_7" d="M9.9538 30.9922L7.7938 34.4222C7.6688 34.6212 7.7288 34.8832 7.9268 35.0082L14.1838 38.9472C14.3828 39.0722 14.6448 39.0122 14.7698 38.8142L15.0558 38.3602C15.4798 37.6862 15.5308 36.8432 15.1918 36.1232L14.2558 33.8822V33.8792L9.9538 30.9922Z" fill="#4E5968"/>
</g>
<path id="Vector_8" d="M18.5747 9.49217L19.6257 7.64317C19.3437 7.50717 19.0957 7.27317 18.9357 6.94217C18.5557 6.15817 18.7997 5.16817 19.4817 4.73117C20.1187 4.32217 20.9077 4.54817 21.3187 5.21917L23.9467 2.93517L23.9497 2.93317C23.8997 2.87517 23.8357 2.83317 23.7827 2.77917C23.6287 2.62017 23.4737 2.46317 23.2987 2.33017C23.2247 2.27417 23.1427 2.23417 23.0667 2.18317C22.8967 2.07017 22.7257 1.96017 22.5417 1.87317C22.4467 1.82817 22.3467 1.79917 22.2497 1.76117C22.0757 1.69317 21.9007 1.62917 21.7197 1.58517C21.6067 1.55717 21.4927 1.54317 21.3777 1.52517C21.2027 1.49717 21.0277 1.47517 20.8487 1.46817C20.7967 1.46617 20.7467 1.45117 20.6947 1.45117C20.6187 1.45117 20.5477 1.47017 20.4727 1.47417C20.3147 1.48217 20.1577 1.49717 20.0037 1.52217C19.8817 1.54217 19.7627 1.56817 19.6437 1.59817C19.4847 1.63917 19.3287 1.68617 19.1767 1.74517C19.0727 1.78517 18.9727 1.82817 18.8737 1.87517C18.7147 1.95017 18.5607 2.03317 18.4127 2.12717C18.3267 2.18217 18.2447 2.24017 18.1627 2.30017C18.0147 2.40917 17.8707 2.52517 17.7377 2.65217C17.6717 2.71517 17.6107 2.78217 17.5477 2.85017C17.4177 2.99017 17.2937 3.13517 17.1837 3.29117C17.1337 3.36217 17.0907 3.43717 17.0437 3.51217C16.9467 3.66917 16.8547 3.83017 16.7787 3.99917C16.7347 4.09617 16.7007 4.19717 16.6637 4.29717C16.6067 4.45117 16.5547 4.60717 16.5167 4.76817C16.4877 4.88817 16.4707 5.01017 16.4517 5.13417C16.4287 5.28717 16.4107 5.44217 16.4047 5.60017C16.4027 5.65517 16.3887 5.70617 16.3887 5.76217C16.3887 5.88817 16.4027 6.01217 16.4137 6.13617C16.4177 6.18517 16.4177 6.23617 16.4237 6.28517C16.4527 6.52417 16.5047 6.75817 16.5727 6.98617C16.5917 7.05117 16.6167 7.11517 16.6397 7.17917C16.7057 7.36717 16.7837 7.54917 16.8737 7.72517C16.8997 7.77617 16.9227 7.82917 16.9507 7.87917C17.0727 8.09517 17.2167 8.29917 17.3747 8.49117C17.4137 8.53917 17.4567 8.58517 17.4977 8.63117C17.6487 8.80017 17.8117 8.95817 17.9897 9.10317C18.0177 9.12617 18.0417 9.15117 18.0707 9.17317C18.2177 9.28617 18.3727 9.38917 18.5357 9.48417C18.5467 9.49017 18.5567 9.49917 18.5677 9.50517L18.5747 9.49217Z" fill="#333333"/>
<path id="Vector_9" d="M23.8039 6.43098C24.0149 6.43098 24.1859 6.12898 24.1859 5.75698C24.1859 5.38498 24.0139 5.08398 23.8029 5.08398C23.5919 5.08398 23.4209 5.38598 23.4209 5.75798C23.4209 6.12998 23.5929 6.43098 23.8039 6.43098Z" fill="black"/>
</g>
</svg>
