<svg width="40" height="40" viewBox="0 0 40 40" fill="none" xmlns="http://www.w3.org/2000/svg">
<g id="&#240;&#159;&#147;&#148;">
<path id="Vector" d="M31.171 3H8.82904C7.22004 3 5.91504 4.305 5.91504 5.914V6.885C5.91504 8.494 7.22004 9.799 8.82904 9.799H31.172C32.781 9.799 34.086 11.104 34.086 12.713V10.77C34.086 9.161 32.781 7.856 31.172 7.856H8.82904C8.29304 7.856 7.85804 7.421 7.85804 6.885V5.914C7.85804 5.378 8.29304 4.943 8.82904 4.943H31.172C32.782 4.943 34.086 6.248 34.086 7.857V5.914C34.086 4.304 32.78 3 31.171 3Z" fill="#FFA300"/>
<path id="Vector_2" d="M31.171 9.79974H8.82904C7.22004 9.79974 5.91504 8.49474 5.91504 6.88574V34.0857C5.91504 35.6947 7.22004 36.9997 8.82904 36.9997H31.172C32.781 36.9997 34.086 35.6947 34.086 34.0857V12.7137C34.086 11.1037 32.78 9.79974 31.171 9.79974ZM11.164 15.5797C11.164 15.0277 11.612 14.5797 12.164 14.5797H27.834C28.386 14.5797 28.834 15.0277 28.834 15.5797V19.3057C28.834 19.8577 28.386 20.3057 27.834 20.3057H12.164C11.612 20.3057 11.164 19.8577 11.164 19.3057V15.5797Z" fill="#FFC33A"/>
<path id="Vector_3" d="M31.1714 4.94338H8.8294C8.2934 4.94338 7.8584 5.37838 7.8584 5.91438V6.88538C7.8584 7.42238 8.2934 7.85638 8.8294 7.85638H31.1724C32.7824 7.85638 34.0864 9.16138 34.0864 10.7704V7.85638C34.0864 6.24738 32.7814 4.94238 31.1724 4.94238L31.1714 4.94338Z" fill="#E5E8EB"/>
<path id="Vector_4" d="M27.835 14.5801H12.165C11.6128 14.5801 11.165 15.0278 11.165 15.5801V19.3061C11.165 19.8584 11.6128 20.3061 12.165 20.3061H27.835C28.3873 20.3061 28.835 19.8584 28.835 19.3061V15.5801C28.835 15.0278 28.3873 14.5801 27.835 14.5801Z" fill="white"/>
</g>
</svg>
