<svg width="24" height="24" viewBox="0 0 24 24" fill="none" xmlns="http://www.w3.org/2000/svg">
<path fill-rule="evenodd" clip-rule="evenodd" d="M21.069 8.204L12.622 1.487C12.4453 1.34616 12.226 1.26946 12 1.26946C11.774 1.26946 11.5547 1.34616 11.378 1.487L2.93 8.204C2.69455 8.39128 2.50439 8.62926 2.37367 8.90023C2.24295 9.17119 2.17504 9.46815 2.175 9.769V19.187C2.175 19.8235 2.42786 20.434 2.87795 20.8841C3.32803 21.3341 3.93848 21.587 4.575 21.587H10V16.835C10 16.5698 10.1054 16.3154 10.2929 16.1279C10.4804 15.9404 10.7348 15.835 11 15.835H13C13.2652 15.835 13.5196 15.9404 13.7071 16.1279C13.8946 16.3154 14 16.5698 14 16.835V21.587H19.424C20.0605 21.587 20.671 21.3341 21.1211 20.8841C21.5711 20.434 21.824 19.8235 21.824 19.187V9.77C21.824 9.46915 21.7561 9.17219 21.6253 8.90123C21.4946 8.63026 21.3045 8.39228 21.069 8.205" fill="#ADB1BA"/>
</svg>
