<svg width="current" height="current" viewBox="0 0 24 24" fill="none" xmlns="http://www.w3.org/2000/svg">
<g clip-path="url(#clip0_932_12379)">
<path d="M12.9669 10.3255L17.2509 2.9083C12.2277 0.00909805 5.8047 1.7299 2.9043 6.7507L10.3239 11.0329C10.8579 10.1077 12.0411 9.7909 12.9663 10.3249L12.9669 10.3255Z" fill="#90BDF8"/>
<path d="M11.032 13.6752L6.74805 21.0924C11.7712 23.9916 18.1942 22.2708 21.094 17.25L13.6744 12.9678C13.1404 13.893 11.9572 14.2092 11.032 13.6752Z" fill="#90BDF8"/>
<path d="M10.3244 11.0332L2.90481 6.75098C0.95481 10.1272 1.10241 14.1322 2.92941 17.278L10.3346 12.9688C9.99801 12.3892 9.96501 11.6554 10.3244 11.0332Z" fill="#90BDF8"/>
<path d="M6.74869 21.0921L11.0327 13.675C10.7297 13.4998 10.4993 13.2514 10.3349 12.9688L2.92969 17.2779C3.82009 18.8103 5.10349 20.1424 6.74869 21.0921Z" fill="#C8E1FF"/>
<path d="M21.0702 6.72266L13.665 11.0319C14.0016 11.6109 14.0346 12.3453 13.6752 12.9675L21.0948 17.2497C23.0448 13.8735 22.8978 9.86846 21.0702 6.72266Z" fill="#90BDF8"/>
<path d="M17.2508 2.9082L12.9668 10.3254C13.2698 10.5006 13.5002 10.749 13.6646 11.0316L21.0698 6.7224C20.1794 5.19 18.896 3.858 17.2508 2.9082Z" fill="#C8E1FF"/>
<path d="M13.61 9.29256C12.1028 8.42256 10.1756 8.93976 9.30621 10.4452C8.43681 11.9506 8.95221 13.8778 10.4594 14.7472C11.966 15.6166 13.8938 15.1 14.7632 13.5946C15.6326 12.0892 15.1166 10.162 13.61 9.29256ZM11.4044 13.111C10.802 12.7636 10.595 11.9932 10.943 11.3902C11.291 10.7872 12.062 10.5814 12.6644 10.9294C13.2668 11.2774 13.4738 12.0472 13.1258 12.6502C12.7778 13.2532 12.0068 13.459 11.4044 13.111Z" fill="#495B73"/>
</g>
<defs>
<clipPath id="clip0_932_12379">
<rect width="24" height="24" fill="white"/>
</clipPath>
</defs>
</svg>
