<svg width="65" height="64" viewBox="0 0 65 64" fill="none" xmlns="http://www.w3.org/2000/svg">
<g clip-path="url(#clip0_2009_25845)">
<path d="M46.9224 12.9769C44.4488 12.9769 42.444 14.9817 42.444 17.4553L41.2568 24.5049L36.0984 19.3465L26.3864 9.63447C26.3864 9.63447 26.3848 9.63287 26.3832 9.63127C24.668 7.91447 21.916 7.88567 20.2376 9.56407C18.5592 11.2425 18.5896 13.9945 20.3048 15.7097L30.02 25.4249L30.0072 25.4393L17.6232 13.0553C15.9096 11.3401 13.1592 11.3113 11.4824 12.9881C9.80559 14.6649 9.83599 17.4137 11.5496 19.1289L23.9336 31.5129L23.9144 31.5321L13.34 20.9577C11.6376 19.2553 8.87919 19.2521 7.17839 20.9529C5.47919 22.6521 5.48079 25.4121 7.18319 27.1145L10.4152 30.3465C8.90639 29.3625 6.89199 29.5081 5.59919 30.8009C4.10799 32.2921 4.13839 34.7401 5.66799 36.2681L19.62 50.2201C26.8904 57.4905 38.6792 57.4905 45.9496 50.2201C49.5848 46.5849 51.4024 41.8201 51.4024 37.0553V17.4553C51.4024 14.9817 49.396 12.9769 46.9224 12.9769Z" fill="#E68E51"/>
<path d="M53.1032 14.4911C50.7848 14.4911 48.9064 16.3711 48.9064 18.6895L47.8152 25.1663L41.9976 19.3487L32.2584 9.60951L32.2568 9.60631C30.788 8.13911 28.4344 8.11191 26.9976 9.54871C25.5608 10.9855 25.588 13.3391 27.0552 14.8079L36.7976 24.5503L35.8456 25.5007L23.4248 13.0799C21.9496 11.6047 19.5832 11.5791 18.14 13.0223C16.6968 14.4655 16.7224 16.8319 18.1976 18.3071L30.6184 30.7279L29.6712 31.6751L19.036 21.0399C17.5944 19.5983 15.26 19.5967 13.8216 21.0351C12.3832 22.4735 12.3848 24.8079 13.8264 26.2495L24.4616 36.8847L23.4808 37.8671L17.0568 31.4431C15.596 29.9807 13.2568 29.9519 11.8328 31.3759C10.4088 32.7999 10.4376 35.1391 11.8984 36.5999L18.324 43.0255L20.7448 45.4463L25.228 49.9295L25.5208 50.2223C32.7912 57.4927 44.58 57.4927 51.8504 50.2223C55.4856 46.5871 57.3032 41.8223 57.3032 37.0575V18.6895C57.3032 16.3711 55.4232 14.4911 53.1064 14.4911H53.1032Z" fill="#FFCCA8"/>
<path d="M41.9064 9.53546C43.2354 9.53546 44.3128 8.45807 44.3128 7.12906C44.3128 5.80004 43.2354 4.72266 41.9064 4.72266C40.5774 4.72266 39.5 5.80004 39.5 7.12906C39.5 8.45807 40.5774 9.53546 41.9064 9.53546Z" fill="#EDCCF8"/>
<path d="M17.7608 58.0179C19.0898 58.0179 20.1672 56.9405 20.1672 55.6115C20.1672 54.2825 19.0898 53.2051 17.7608 53.2051C16.4318 53.2051 15.3544 54.2825 15.3544 55.6115C15.3544 56.9405 16.4318 58.0179 17.7608 58.0179Z" fill="#F66570"/>
<path d="M54.2954 2.48793L50.8883 4.20646C50.1798 4.56382 49.8951 5.42787 50.2525 6.13637L51.971 9.54349C52.3284 10.252 53.1924 10.5366 53.9009 10.1793L57.308 8.46076C58.0165 8.1034 58.3012 7.23935 57.9438 6.53085L56.2253 3.12372C55.8679 2.41522 55.0039 2.13057 54.2954 2.48793Z" fill="#B44BD7"/>
<path d="M11.0132 51.3733L10.0486 48.3389C9.84786 47.7073 9.17309 47.3581 8.54149 47.5588L5.50711 48.5234C4.87551 48.7241 4.52625 49.3989 4.72702 50.0305L5.69156 53.0649C5.89233 53.6965 6.5671 54.0458 7.1987 53.845L10.2331 52.8804C10.8647 52.6797 11.2139 52.0049 11.0132 51.3733Z" fill="#6376FF"/>
<path d="M60.6376 15.9593C61.9666 15.9593 63.044 14.8819 63.044 13.5529C63.044 12.2239 61.9666 11.1465 60.6376 11.1465C59.3086 11.1465 58.2312 12.2239 58.2312 13.5529C58.2312 14.8819 59.3086 15.9593 60.6376 15.9593Z" fill="#7896FF"/>
</g>
<defs>
<clipPath id="clip0_2009_25845">
<rect width="64" height="64" fill="white" transform="translate(0.5)"/>
</clipPath>
</defs>
</svg>
