<svg width="100%" height="100%" viewBox="0 0 61 60" fill="none" xmlns="http://www.w3.org/2000/svg">
<g clip-path="url(#clip0_1821_15102)">
<path d="M32.7052 56.9055C31.9342 56.9055 31.2787 56.3145 31.2112 55.533C31.1407 54.708 31.7527 53.982 32.5792 53.91C35.3272 53.676 37.9867 52.9755 40.4857 51.8295C41.2372 51.486 42.1282 51.8145 42.4747 52.569C42.8197 53.322 42.4897 54.2115 41.7352 54.558C38.9212 55.848 35.9257 56.6355 32.8327 56.901C32.7892 56.904 32.7472 56.9055 32.7052 56.9055ZM26.9062 56.6655C26.8327 56.6655 26.7577 56.661 26.6827 56.649C23.5252 56.178 20.5777 55.2645 17.9257 53.9325C17.1847 53.5605 16.8862 52.659 17.2582 51.9195C17.6302 51.1785 18.5287 50.8785 19.2712 51.252C21.6382 52.44 24.2812 53.2575 27.1237 53.682C27.9427 53.805 28.5082 54.567 28.3867 55.3875C28.2757 56.1315 27.6352 56.667 26.9047 56.667L26.9062 56.6655ZM46.0822 51.687C45.6337 51.687 45.1897 51.4875 44.8942 51.105C44.3872 50.4495 44.5087 49.5075 45.1627 49.0005C47.3437 47.3145 49.2052 45.285 50.6962 42.969C51.1432 42.273 52.0717 42.0705 52.7692 42.5205C53.4652 42.969 53.6662 43.896 53.2177 44.5935C51.5422 47.196 49.4497 49.4775 46.9972 51.3735C46.7242 51.585 46.4017 51.687 46.0807 51.687H46.0822ZM13.7557 50.886C13.4107 50.886 13.0657 50.7675 12.7822 50.526C10.4347 48.5205 8.48172 46.1055 6.97872 43.347C6.58122 42.6195 6.85122 41.709 7.57722 41.313C8.30322 40.914 9.21522 41.184 9.61122 41.9115C10.9387 44.3475 12.6607 46.4775 14.7292 48.2445C15.3592 48.783 15.4342 49.7295 14.8957 50.3595C14.5987 50.706 14.1787 50.886 13.7557 50.886ZM54.5257 40.0695C54.3592 40.0695 54.1882 40.041 54.0217 39.981C53.2417 39.702 52.8337 38.8455 53.1127 38.064C54.0337 35.481 54.5002 32.7675 54.5002 30C54.5002 29.172 55.1722 28.446 56.0002 28.446C56.8282 28.446 57.5002 29.064 57.5002 29.892V29.9985C57.5002 33.111 56.9737 36.1635 55.9372 39.0705C55.7182 39.684 55.1407 40.068 54.5242 40.068L54.5257 40.0695ZM6.11922 38.7435C5.46222 38.7435 4.85922 38.3085 4.67472 37.6455C3.98622 35.169 3.63672 32.5965 3.63672 29.9985C3.63672 29.505 3.64872 29.0115 3.67422 28.5195C3.71622 27.6915 4.42422 27.0405 5.24922 27.099C6.07572 27.141 6.71322 27.8475 6.66972 28.674C6.64722 29.115 6.63672 29.556 6.63672 29.9985C6.63672 32.325 6.94872 34.6275 7.56522 36.8415C7.78722 37.6395 7.32072 38.466 6.52272 38.688C6.38772 38.7255 6.25272 38.7435 6.11922 38.7435ZM55.3207 25.6245C54.6412 25.6245 54.0247 25.1595 53.8627 24.4695C53.2312 21.792 52.1482 19.2615 50.6467 16.9485C50.1952 16.254 50.3932 15.324 51.0877 14.874C51.7822 14.4225 52.7122 14.622 53.1622 15.315C54.8512 17.9175 56.0692 20.766 56.7817 23.7795C56.9722 24.5865 56.4727 25.3935 55.6672 25.584C55.5502 25.6125 55.4347 25.6245 55.3207 25.6245ZM6.09372 24.3555C5.96322 24.3555 5.82972 24.3375 5.69622 24.3015C4.89672 24.0825 4.42722 23.2575 4.64622 22.458C5.47872 19.4235 6.79272 16.617 8.55372 14.121C9.03222 13.443 9.96822 13.281 10.6447 13.7595C11.3227 14.2365 11.4847 15.1725 11.0062 15.8505C9.44472 18.063 8.27922 20.553 7.53972 23.2515C7.35672 23.9175 6.75372 24.3555 6.09372 24.3555ZM48.2077 13.149C47.8327 13.149 47.4577 13.0095 47.1667 12.729C45.1792 10.812 42.9037 9.264 40.3987 8.1285C39.6442 7.7865 39.3097 6.897 39.6517 6.1425C39.9922 5.388 40.8817 5.0505 41.6377 5.3955C44.4532 6.6735 47.0152 8.4135 49.2487 10.569C49.8442 11.145 49.8622 12.0945 49.2862 12.69C48.9922 12.996 48.6007 13.149 48.2077 13.149ZM13.6792 12.1815C13.2577 12.1815 12.8392 12.0045 12.5422 11.661C12.0007 11.034 12.0712 10.086 12.6982 9.546C15.0112 7.551 17.6857 5.9835 20.6497 4.884C21.4237 4.5945 22.2892 4.992 22.5772 5.769C22.8652 6.546 22.4692 7.4085 21.6922 7.6965C19.0657 8.6715 16.6987 10.0575 14.6572 11.8185C14.3737 12.063 14.0257 12.1815 13.6792 12.1815ZM35.4847 6.486C35.3887 6.486 35.2897 6.477 35.1922 6.4575C33.6592 6.153 32.0812 6 30.5017 6C29.3572 6.0465 28.1692 6.159 27.0277 6.333C26.2132 6.4635 25.4437 5.8965 25.3177 5.076C25.1932 4.257 25.7557 3.492 26.5747 3.366C27.8257 3.1755 29.1277 3.0525 30.4417 3H30.4612C32.2882 3 34.0567 3.1725 35.7742 3.513C36.5872 3.6735 37.1152 4.464 36.9547 5.2755C36.8137 5.9895 36.1867 6.486 35.4847 6.486Z" fill="#FFC84D"/>
<path d="M23.6301 28.5398C25.3151 28.5398 26.6811 26.7602 26.6811 24.5648C26.6811 22.3695 25.3151 20.5898 23.6301 20.5898C21.9451 20.5898 20.5791 22.3695 20.5791 24.5648C20.5791 26.7602 21.9451 28.5398 23.6301 28.5398Z" fill="#FF6D00"/>
<path d="M37.3703 28.5398C39.0554 28.5398 40.4213 26.7602 40.4213 24.5648C40.4213 22.3695 39.0554 20.5898 37.3703 20.5898C35.6853 20.5898 34.3193 22.3695 34.3193 24.5648C34.3193 26.7602 35.6853 28.5398 37.3703 28.5398Z" fill="#FF6D00"/>
<path d="M38.8012 39.7548H22.1977C21.3922 39.7548 20.7412 39.1023 20.7412 38.2983C20.7412 37.4943 21.3922 36.8418 22.1977 36.8418H38.8012C39.6067 36.8418 40.2577 37.4943 40.2577 38.2983C40.2577 39.1023 39.6067 39.7548 38.8012 39.7548Z" fill="#FF6D00"/>
</g>
<defs>
<clipPath id="clip0_1821_15102">
<rect width="60" height="60" fill="white" transform="translate(0.5)"/>
</clipPath>
</defs>
</svg>
