<svg width="36" height="41" viewBox="0 0 36 41" fill="none" xmlns="http://www.w3.org/2000/svg">
<g id="Frame 1321316209">
<g id="Rectangle 3466184" filter="url(#filter0_d_2009_32574)">
<path d="M7.65856 4.36753C13.37 -1.45584 22.63 -1.45584 28.3414 4.36753C34.0529 10.1909 34.0529 19.6325 28.3414 25.4558L19.4279 34.5441C18.6438 35.3436 17.3562 35.3436 16.5721 34.5441L7.65856 25.4558C1.94715 19.6325 1.94715 10.1909 7.65856 4.36753Z" fill="#00B288"/>
<path d="M8.72947 5.41785C13.8528 0.194051 22.1472 0.194051 27.2705 5.41785C32.4098 10.6579 32.4098 19.1655 27.2705 24.4055L18.357 33.4938C18.161 33.6937 17.839 33.6937 17.643 33.4938L8.72947 24.4055C3.59018 19.1655 3.59018 10.6579 8.72947 5.41785Z" stroke="white" stroke-width="3"/>
</g>
<g id="icon-flag">
<path id="Vector (Stroke)" fill-rule="evenodd" clip-rule="evenodd" d="M12 9.5C12.2761 9.5 12.5 9.72386 12.5 10V10.3596L13.7255 10.0532C15.2308 9.67692 16.821 9.85149 18.2088 10.5454L18.2806 10.5813C19.4315 11.1567 20.7476 11.3104 22 11.0158L24.0731 10.528C24.231 10.4908 24.3972 10.5326 24.5187 10.64C24.6403 10.7475 24.7022 10.9072 24.6847 11.0685C24.5626 12.1954 24.5 13.3403 24.5 14.5C24.5 15.6694 24.5637 16.8237 24.6878 17.9597C24.7152 18.2107 24.5511 18.4428 24.3052 18.5007L22.2291 18.9892C20.7489 19.3374 19.1935 19.1558 17.8334 18.4757L17.7616 18.4398C16.5873 17.8527 15.2417 17.705 13.968 18.0234L12.5 18.3904V22C12.5 22.2761 12.2761 22.5 12 22.5C11.7239 22.5 11.5 22.2761 11.5 22V10C11.5 9.72386 11.7239 9.5 12 9.5Z" fill="white"/>
</g>
</g>
<defs>
<filter id="filter0_d_2009_32574" x="1.375" y="0" width="33.25" height="40.1445" filterUnits="userSpaceOnUse" color-interpolation-filters="sRGB">
<feFlood flood-opacity="0" result="BackgroundImageFix"/>
<feColorMatrix in="SourceAlpha" type="matrix" values="0 0 0 0 0 0 0 0 0 0 0 0 0 0 0 0 0 0 127 0" result="hardAlpha"/>
<feOffset dy="3"/>
<feGaussianBlur stdDeviation="1"/>
<feComposite in2="hardAlpha" operator="out"/>
<feColorMatrix type="matrix" values="0 0 0 0 0 0 0 0 0 0 0 0 0 0 0 0 0 0 0.2 0"/>
<feBlend mode="normal" in2="BackgroundImageFix" result="effect1_dropShadow_2009_32574"/>
<feBlend mode="normal" in="SourceGraphic" in2="effect1_dropShadow_2009_32574" result="shape"/>
</filter>
</defs>
</svg>
