<svg width="17" height="16" viewBox="0 0 17 16" fill="none" xmlns="http://www.w3.org/2000/svg">
<g clip-path="url(#clip0_932_15291)">
<path d="M3.65381 2.5293V12.1425C7.52981 12.2613 11.4062 6.9113 15.2822 7.8313C11.4062 4.4445 7.52981 6.8565 3.65381 2.5293Z" fill="#E32939"/>
<path d="M3.31748 14.7353C3.09628 14.7353 2.91748 14.5565 2.91748 14.3353V2.46494C2.91748 2.24374 3.09628 2.06494 3.31748 2.06494C3.53868 2.06494 3.71748 2.24374 3.71748 2.46494V14.3353C3.71748 14.5565 3.53868 14.7353 3.31748 14.7353Z" fill="#333D4B"/>
<path d="M3.31709 3.26504C3.75892 3.26504 4.11709 2.90687 4.11709 2.46504C4.11709 2.02321 3.75892 1.66504 3.31709 1.66504C2.87526 1.66504 2.51709 2.02321 2.51709 2.46504C2.51709 2.90687 2.87526 3.26504 3.31709 3.26504Z" fill="#333D4B"/>
</g>
<defs>
<clipPath id="clip0_932_15291">
<rect width="16" height="16" fill="white" transform="translate(0.5)"/>
</clipPath>
</defs>
</svg>
