<svg width="61" height="61" viewBox="0 0 61 61" fill="none" xmlns="http://www.w3.org/2000/svg">
<g clip-path="url(#clip0_2009_26272)">
<path d="M27.9095 58.1593C26.8745 58.1593 26.0345 57.3193 26.0345 56.2843V21.7168C26.0345 20.6818 26.8745 19.8418 27.9095 19.8418C28.9445 19.8418 29.7845 20.6818 29.7845 21.7168V56.2858C29.7845 57.3208 28.9445 58.1608 27.9095 58.1608V58.1593Z" fill="#4E5968"/>
<path d="M18.2165 57.9983C17.8985 57.9983 17.576 57.9173 17.2805 57.7478C16.3835 57.2288 16.076 56.0828 16.5935 55.1858L26.285 38.4008C26.8025 37.5023 27.9515 37.1978 28.847 37.7138C29.744 38.2328 30.0515 39.3788 29.534 40.2758L19.8425 57.0608C19.496 57.6623 18.8645 57.9983 18.218 57.9983H18.2165Z" fill="#4E5968"/>
<path d="M37.601 57.9983C36.953 57.9983 36.323 57.6623 35.9765 57.0608L26.2865 40.2758C25.769 39.3788 26.0765 38.2328 26.9735 37.7138C27.8675 37.1978 29.0165 37.5023 29.5355 38.4008L39.2255 55.1858C39.743 56.0828 39.4355 57.2288 38.5385 57.7478C38.243 57.9173 37.9205 57.9983 37.6025 57.9983H37.601Z" fill="#4E5968"/>
<path d="M8.18814 35.1495L21.2933 31.638C22.1736 31.4021 22.6959 30.4974 22.4601 29.6172L19.6303 19.0562C19.3944 18.176 18.4897 17.6536 17.6094 17.8895L4.50424 21.401C3.62402 21.6369 3.10166 22.5416 3.33751 23.4218L6.16731 33.9828C6.40316 34.863 7.30792 35.3854 8.18814 35.1495Z" fill="#8595AA"/>
<path d="M21.5315 33.4503L37.4794 29.1771C38.3596 28.9412 38.882 28.0364 38.6461 27.1562L34.7817 12.734C34.5458 11.8538 33.6411 11.3314 32.7609 11.5673L16.813 15.8405C15.9327 16.0763 15.4104 16.9811 15.6462 17.8613L19.5107 32.2836C19.7465 33.1638 20.6513 33.6861 21.5315 33.4503Z" fill="#ABB7C7"/>
<path d="M37.7968 31.0637L56.4933 26.054C57.3735 25.8182 57.8959 24.9134 57.66 24.0332L52.8107 5.93511C52.5748 5.05489 51.67 4.53253 50.7898 4.76838L32.0934 9.77808C31.2131 10.0139 30.6908 10.9187 30.9266 11.7989L35.776 29.897C36.0119 30.7772 36.9166 31.2996 37.7968 31.0637Z" fill="#D0D6DE"/>
<path d="M30.635 41.2129H24.986C23.951 41.2129 23.111 40.3729 23.111 39.3379C23.111 38.3029 23.951 37.4629 24.986 37.4629H30.635C31.67 37.4629 32.51 38.3029 32.51 39.3379C32.51 40.3729 31.67 41.2129 30.635 41.2129Z" fill="#6B7683"/>
</g>
<defs>
<clipPath id="clip0_2009_26272">
<rect width="60" height="60" fill="white" transform="translate(0.5 0.5)"/>
</clipPath>
</defs>
</svg>
