<svg width="49" height="48" viewBox="0 0 49 48" fill="none" xmlns="http://www.w3.org/2000/svg">
<g id="029.paste">
<path id="Vector" d="M36.5 8H12.5C10.2909 8 8.5 9.79086 8.5 12V42C8.5 44.2091 10.2909 46 12.5 46H36.5C38.7091 46 40.5 44.2091 40.5 42V12C40.5 9.79086 38.7091 8 36.5 8Z" fill="#737A83"/>
<path id="Vector_2" d="M30.5 8C30.5 4.68629 27.8137 2 24.5 2C21.1863 2 18.5 4.68629 18.5 8C18.5 11.3137 21.1863 14 24.5 14C27.8137 14 30.5 11.3137 30.5 8Z" fill="#DCDEE3"/>
<path id="Vector_3" d="M14.5 8H34.5V12C34.5 12.5304 34.2893 13.0391 33.9142 13.4142C33.5391 13.7893 33.0304 14 32.5 14H16.5C15.9696 14 15.4608 13.7893 15.0858 13.4142C14.7107 13.0391 14.5 12.5304 14.5 12V8Z" fill="#DCDEE3"/>
<path id="Vector_4" d="M24.5 10C25.6046 10 26.5 9.10457 26.5 8C26.5 6.89543 25.6046 6 24.5 6C23.3954 6 22.5 6.89543 22.5 8C22.5 9.10457 23.3954 10 24.5 10Z" fill="#393A40"/>
</g>
</svg>
