<svg width="16" height="16" viewBox="0 0 16 16" fill="none" xmlns="http://www.w3.org/2000/svg">
<g clip-path="url(#clip0_932_15301)">
<path d="M10.3085 2.46984L2.04297 10.7354L5.17771 13.8701L13.4432 5.60458L10.3085 2.46984Z" fill="#FFAA00"/>
<path fill-rule="evenodd" clip-rule="evenodd" d="M14.7375 4.31087L13.4439 5.60487L10.3091 2.46967L11.6027 1.17607C11.9527 0.826074 12.5199 0.826074 12.8695 1.17607L14.7375 3.04407C15.0875 3.39407 15.0875 3.96087 14.7375 4.31087Z" fill="#FF9000"/>
<path fill-rule="evenodd" clip-rule="evenodd" d="M1.31809 14.9046L2.85009 14.4942L1.41929 13.063L1.00889 14.5954C0.958494 14.783 1.13049 14.9546 1.31809 14.9046Z" fill="#313D4C"/>
<path fill-rule="evenodd" clip-rule="evenodd" d="M1.41992 13.063L2.85032 14.4942L5.17872 13.8702L2.04392 10.7354L1.41992 13.063Z" fill="#FFCCA8"/>
</g>
<defs>
<clipPath id="clip0_932_15301">
<rect width="16" height="16" fill="white"/>
</clipPath>
</defs>
</svg>
