<svg width="current" height="current" viewBox="0 0 24 24" fill="none" xmlns="http://www.w3.org/2000/svg">
<g clip-path="url(#clip0_932_12367)">
<path d="M3.74512 6.79004L4.28212 20.4604C4.32052 21.4318 5.11912 22.1998 6.09112 22.1998H18.1097C19.0817 22.1998 19.8803 21.4318 19.9187 20.4604L20.4557 6.79004H3.74512Z" fill="#6B7683"/>
<path d="M3.85449 9.58203L4.28169 20.4606C4.32009 21.432 5.11869 22.2 6.09069 22.2H18.1093C19.0813 22.2 19.8799 21.432 19.9183 20.4606L20.3455 9.58203H3.85449Z" fill="#8A94A0"/>
<path d="M10.0223 18.0737C9.62035 18.0737 9.29395 17.7479 9.29395 17.3453V12.3095C9.29395 11.9069 9.62035 11.5811 10.0223 11.5811C10.4243 11.5811 10.7507 11.9069 10.7507 12.3095V17.3453C10.7507 17.7479 10.4243 18.0737 10.0223 18.0737Z" fill="#4B596A"/>
<path d="M14.1796 18.0737C13.7776 18.0737 13.4512 17.7479 13.4512 17.3453V12.3095C13.4512 11.9069 13.7776 11.5811 14.1796 11.5811C14.5816 11.5811 14.908 11.9069 14.908 12.3095V17.3453C14.908 17.7479 14.5816 18.0737 14.1796 18.0737Z" fill="#4B596A"/>
<path d="M16.1983 5.48969C15.7963 5.48969 15.4699 5.16389 15.4699 4.76129V3.81089C15.4699 3.10349 14.8945 2.52749 14.1871 2.52749H10.0189C9.3115 2.52749 8.7361 3.10349 8.7361 3.81089V4.76129C8.7361 5.16389 8.4097 5.48969 8.0077 5.48969C7.6057 5.48969 7.2793 5.16389 7.2793 4.76129V3.81089C7.2793 2.29949 8.5087 1.07129 10.0195 1.07129H14.1877C15.6985 1.07129 16.9279 2.30009 16.9279 3.81089V4.76129C16.9279 5.16389 16.6015 5.48969 16.1995 5.48969H16.1983Z" fill="#4B596A"/>
<path d="M20.6499 4.75781H3.35071C2.85067 4.75781 2.44531 5.16317 2.44531 5.66321V6.86981C2.44531 7.36985 2.85067 7.77521 3.35071 7.77521H20.6499C21.15 7.77521 21.5553 7.36985 21.5553 6.86981V5.66321C21.5553 5.16317 21.15 4.75781 20.6499 4.75781Z" fill="#8A94A0"/>
</g>
<defs>
<clipPath id="clip0_932_12367">
<rect width="24" height="24" fill="white"/>
</clipPath>
</defs>
</svg>
