<svg width="100%" height="100%" viewBox="0 0 24 24" fill="current" xmlns="http://www.w3.org/2000/svg">
<path fill-rule="evenodd" clip-rule="evenodd" d="M8.16147 2.58075C8.68934 2.31681 9.31066 2.31681 9.83853 2.58075L14.8323 5.07763C14.9379 5.13042 15.0621 5.13042 15.1677 5.07763L19.0365 3.14325C20.2832 2.5199 21.75 3.42646 21.75 4.8203V17.3047C21.75 18.0149 21.3487 18.6642 20.7135 18.9818L15.8385 21.4193C15.3107 21.6832 14.6893 21.6832 14.1615 21.4193L9.16771 18.9224C9.06213 18.8696 8.93787 18.8696 8.8323 18.9224L4.96353 20.8568C3.71683 21.4801 2.25 20.5736 2.25 19.1797V6.6953C2.25 5.9851 2.65125 5.33586 3.28647 5.01825L8.16147 2.58075ZM9 6C9.41421 6 9.75 6.33579 9.75 6.75V15C9.75 15.4142 9.41421 15.75 9 15.75C8.58579 15.75 8.25 15.4142 8.25 15V6.75C8.25 6.33579 8.58579 6 9 6ZM15.75 9C15.75 8.58579 15.4142 8.25 15 8.25C14.5858 8.25 14.25 8.58579 14.25 9V17.25C14.25 17.6642 14.5858 18 15 18C15.4142 18 15.75 17.6642 15.75 17.25V9Z" fill="current"/>
</svg>
