<svg width="73" height="40" viewBox="0 0 73 40" fill="none" xmlns="http://www.w3.org/2000/svg">
<path fill-rule="evenodd" clip-rule="evenodd" d="M32.8615 2.58075C33.3894 2.31681 34.0107 2.31681 34.5385 2.58075L39.5323 5.07763C39.6379 5.13042 39.7621 5.13042 39.8677 5.07763L43.7365 3.14325C44.9832 2.5199 46.45 3.42646 46.45 4.8203V17.3047C46.45 18.0149 46.0488 18.6642 45.4135 18.9818L40.5385 21.4193C40.0107 21.6832 39.3894 21.6832 38.8615 21.4193L33.8677 18.9224C33.7621 18.8696 33.6379 18.8696 33.5323 18.9224L29.6635 20.8568C28.4168 21.4801 26.95 20.5736 26.95 19.1797V6.6953C26.95 5.9851 27.3513 5.33586 27.9865 5.01825L32.8615 2.58075ZM33.7 6C34.1142 6 34.45 6.33579 34.45 6.75V15C34.45 15.4142 34.1142 15.75 33.7 15.75C33.2858 15.75 32.95 15.4142 32.95 15V6.75C32.95 6.33579 33.2858 6 33.7 6ZM40.45 9C40.45 8.58579 40.1142 8.25 39.7 8.25C39.2858 8.25 38.95 8.58579 38.95 9V17.25C38.95 17.6642 39.2858 18 39.7 18C40.1142 18 40.45 17.6642 40.45 17.25V9Z" fill="#4D5159"/>
<path d="M35.3524 29.959V30.7988C35.3426 31.8535 35.3524 33.0449 34.991 34.8125L34.2391 34.7246C34.4051 33.9385 34.493 33.25 34.5418 32.6396L29.2391 32.957L29.1121 32.2832L34.576 32.0586C34.5955 31.5996 34.6004 31.1895 34.6004 30.7988V30.5938H29.366V29.959H35.3524ZM28.409 36.6094V35.9551H31.5145V33.709H32.2664V35.9551H36.3192V36.6094H28.409ZM41.3777 30.3887C41.3826 31.8779 43.0818 33.2012 44.5906 33.4844L44.2391 34.1289C42.9256 33.8262 41.5486 32.8936 40.9871 31.6191C40.4207 32.8936 39.0486 33.8213 37.7352 34.1289L37.3836 33.4844C38.8875 33.1963 40.5721 31.8828 40.577 30.3887V29.7246H41.3777V30.3887ZM37.0516 36.6094V35.9746H45.0008V36.6094H37.0516Z" fill="#393A40"/>
</svg>
