<svg width="73" height="40" viewBox="0 0 73 40" fill="none" xmlns="http://www.w3.org/2000/svg">
<path fill-rule="evenodd" clip-rule="evenodd" d="M30.8202 2.57741C32.6837 2.36114 34.579 2.25 36.5 2.25C38.421 2.25 40.3163 2.36114 42.1798 2.57741C43.6772 2.75119 44.75 4.03722 44.75 5.50699V21C44.75 21.2599 44.6154 21.5013 44.3943 21.638C44.1732 21.7746 43.8971 21.7871 43.6646 21.6708L36.5 18.0885L29.3354 21.6708C29.1029 21.7871 28.8268 21.7746 28.6057 21.638C28.3846 21.5013 28.25 21.2599 28.25 21V5.50699C28.25 4.03722 29.3228 2.75119 30.8202 2.57741Z" fill="#4D5159"/>
<path d="M28.2139 30.3887C28.2188 31.8779 29.918 33.2012 31.4268 33.4844L31.0752 34.1289C29.7617 33.8262 28.3848 32.8936 27.8232 31.6191C27.2568 32.8936 25.8848 33.8213 24.5713 34.1289L24.2197 33.4844C25.7236 33.1963 27.4082 31.8828 27.4131 30.3887V29.7246H28.2139V30.3887ZM23.8877 36.6094V35.9746H31.8369V36.6094H23.8877ZM39.4541 29.998V31.0723C39.459 32.3516 39.459 33.5332 39.0928 35.291L38.3213 35.2227C38.5166 34.3877 38.6094 33.665 38.6582 32.9912L33.3604 33.2793L33.2529 32.6445L38.6924 32.4199C38.707 31.9609 38.7119 31.5166 38.7119 31.0723V30.6426H33.4873V29.998H39.4541ZM32.5303 36.5703V35.9258H40.4404V36.5703H32.5303ZM48.5459 29.1191V33.9238H47.8135V31.8047H46.5928V33.8359H45.8799V29.2754H46.5928V31.1895H47.8135V29.1191H48.5459ZM41.5537 30.2617V29.6367H44.8447V31.8633H42.3154V33.0156C43.458 33.001 44.3369 32.957 45.3623 32.7422L45.4502 33.377C44.3223 33.5869 43.3994 33.6357 42.1396 33.6406H41.5732V31.2773H44.1123V30.2617H41.5537ZM42.8232 37.6738V34.3242H43.585V35.3203H47.7939V34.3242H48.5459V37.6738H42.8232ZM43.585 37.0488H47.7939V35.9453H43.585V37.0488Z" fill="#393A40"/>
</svg>
